<svg xmlns="http://www.w3.org/2000/svg" xmlns:xlink="http://www.w3.org/1999/xlink" width="1366" zoomAndPan="magnify" viewBox="0 0 1024.5 576" height="768" preserveAspectRatio="xMidYMid meet" version="1.0"><defs><filter x="0%" y="0%" width="100%" height="100%" id="9f912166a5"><feColorMatrix values="0 0 0 0 1 0 0 0 0 1 0 0 0 0 1 0 0 0 1 0" color-interpolation-filters="sRGB"/></filter><g/><clipPath id="98f20c9ffb"><path d="M 0 0.140625 L 1024 0.140625 L 1024 575.859375 L 0 575.859375 Z M 0 0.140625 " clip-rule="nonzero"/></clipPath><clipPath id="15eb478444"><path d="M 331 0.140625 L 1024 0.140625 L 1024 575.859375 L 331 575.859375 Z M 331 0.140625 " clip-rule="nonzero"/></clipPath><clipPath id="8130a48518"><path d="M 401.484375 -229.527344 L 1260.222656 -35.792969 L 1075.851562 781.445312 L 217.113281 587.710938 Z M 401.484375 -229.527344 " clip-rule="nonzero"/></clipPath><clipPath id="4ab6508ff5"><path d="M 830.199219 -132.808594 L 860.984375 202.183594 L 1188.492188 276.070312 L 880.007812 409.21875 L 910.789062 744.207031 L 689.351562 491.507812 L 380.867188 624.65625 L 552.5 335.332031 L 331.0625 82.628906 L 658.570312 156.515625 Z M 830.199219 -132.808594 " clip-rule="nonzero"/></clipPath><clipPath id="13d02b5e02"><path d="M 0 0.140625 L 284 0.140625 L 284 348 L 0 348 Z M 0 0.140625 " clip-rule="nonzero"/></clipPath><clipPath id="145451c8b1"><path d="M -133.175781 27.214844 L 228.921875 -102.769531 L 352.621094 241.828125 L -9.476562 371.8125 Z M -133.175781 27.214844 " clip-rule="nonzero"/></clipPath><clipPath id="4dc0b63905"><path d="M 47.597656 -37.679688 L 137.519531 78.625 L 275.617188 29.054688 L 193.097656 150.507812 L 283.019531 266.8125 L 142.09375 225.570312 L 59.574219 347.027344 L 55 200.082031 L -85.929688 158.839844 L 52.171875 109.265625 Z M 47.597656 -37.679688 " clip-rule="nonzero"/></clipPath><clipPath id="1e9789d615"><path d="M 219 274 L 449 274 L 449 509 L 219 509 Z M 219 274 " clip-rule="nonzero"/></clipPath><clipPath id="7133ffc149"><path d="M 237.046875 250.265625 L 467.113281 299.414062 L 420.335938 518.363281 L 190.269531 469.210938 Z M 237.046875 250.265625 " clip-rule="nonzero"/></clipPath><clipPath id="9031321ad3"><path d="M 351.90625 274.800781 L 361.152344 364.226562 L 448.894531 382.972656 L 366.867188 419.492188 L 376.113281 508.914062 L 316.171875 442.0625 L 234.144531 478.585938 L 279.125 400.746094 L 219.179688 333.894531 L 306.921875 352.640625 Z M 351.90625 274.800781 " clip-rule="nonzero"/></clipPath><clipPath id="040e89cd01"><path d="M 44 425 L 161 425 L 161 547 L 44 547 Z M 44 425 " clip-rule="nonzero"/></clipPath><clipPath id="304728838f"><path d="M 28.078125 447.855469 L 140.035156 404.042969 L 181.734375 510.585938 L 69.777344 554.402344 Z M 28.078125 447.855469 " clip-rule="nonzero"/></clipPath><clipPath id="bb11a66dab"><path d="M 83.972656 425.984375 L 113.09375 461.515625 L 155.792969 444.804688 L 131.09375 483.476562 L 160.214844 519.007812 L 115.828125 507.375 L 91.128906 546.046875 L 88.394531 500.1875 L 44.007812 488.554688 L 86.707031 471.84375 Z M 83.972656 425.984375 " clip-rule="nonzero"/></clipPath><mask id="3b01abf5d0"><g filter="url(#9f912166a5)"><rect x="-102.45" width="1229.4" fill="#000000" y="-57.6" height="691.2" fill-opacity="0.3"/></g></mask><clipPath id="8843dbb21f"><path d="M 0 14.03125 L 466 14.03125 L 466 368.605469 L 0 368.605469 Z M 0 14.03125 " clip-rule="nonzero"/></clipPath><clipPath id="da5d79d959"><path d="M -43.933594 14.03125 L 438.148438 14.03125 C 453.054688 14.03125 465.136719 26.113281 465.136719 41.015625 L 465.136719 341.621094 C 465.136719 356.523438 453.054688 368.605469 438.148438 368.605469 L -43.933594 368.605469 C -58.839844 368.605469 -70.921875 356.523438 -70.921875 341.621094 L -70.921875 41.015625 C -70.921875 26.113281 -58.839844 14.03125 -43.933594 14.03125 Z M -43.933594 14.03125 " clip-rule="nonzero"/></clipPath><clipPath id="8dbb9ebf59"><path d="M 0 14.03125 L 465.066406 14.03125 L 465.066406 368.605469 L 0 368.605469 Z M 0 14.03125 " clip-rule="nonzero"/></clipPath><clipPath id="36ee11f26a"><path d="M -43.933594 14.03125 L 438.140625 14.03125 C 453.042969 14.03125 465.125 26.113281 465.125 41.019531 L 465.125 341.617188 C 465.125 356.519531 453.042969 368.601562 438.140625 368.601562 L -43.933594 368.601562 C -58.839844 368.601562 -70.921875 356.519531 -70.921875 341.617188 L -70.921875 41.019531 C -70.921875 26.113281 -58.839844 14.03125 -43.933594 14.03125 Z M -43.933594 14.03125 " clip-rule="nonzero"/></clipPath><clipPath id="e1ca3a237a"><rect x="0" width="480" y="0" height="382"/></clipPath><clipPath id="0cb75e8451"><path d="M 0 0.140625 L 1024 0.140625 L 1024 53.433594 L 0 53.433594 Z M 0 0.140625 " clip-rule="nonzero"/></clipPath><clipPath id="1011242ab0"><path d="M -0.519531 0.140625 L 1048.445312 0.140625 C 1055.511719 0.140625 1062.289062 2.949219 1067.285156 7.945312 C 1072.285156 12.941406 1075.089844 19.71875 1075.089844 26.785156 C 1075.089844 33.851562 1072.285156 40.628906 1067.285156 45.628906 C 1062.289062 50.625 1055.511719 53.433594 1048.445312 53.433594 L -0.519531 53.433594 C -7.585938 53.433594 -14.363281 50.625 -19.363281 45.628906 C -24.359375 40.628906 -27.164062 33.851562 -27.164062 26.785156 C -27.164062 19.71875 -24.359375 12.941406 -19.363281 7.945312 C -14.363281 2.949219 -7.585938 0.140625 -0.519531 0.140625 Z M -0.519531 0.140625 " clip-rule="nonzero"/></clipPath><clipPath id="be8648b118"><path d="M 12.351562 6.347656 L 43.855469 6.347656 L 43.855469 36.328125 L 12.351562 36.328125 Z M 12.351562 6.347656 " clip-rule="nonzero"/></clipPath><clipPath id="c8f8711b1a"><path d="M 28.078125 6.347656 L 31.792969 17.800781 L 43.808594 17.800781 L 34.085938 24.878906 L 37.800781 36.328125 L 28.078125 29.25 L 18.359375 36.328125 L 22.074219 24.878906 L 12.351562 17.800781 L 24.367188 17.800781 Z M 28.078125 6.347656 " clip-rule="nonzero"/></clipPath><clipPath id="cf4bd80988"><path d="M 57.515625 7.257812 L 89 7.257812 L 89 37.238281 L 57.515625 37.238281 Z M 57.515625 7.257812 " clip-rule="nonzero"/></clipPath><clipPath id="a67883597d"><path d="M 73.246094 7.257812 L 76.957031 18.707031 L 88.972656 18.707031 L 79.25 25.785156 L 82.964844 37.238281 L 73.246094 30.160156 L 63.523438 37.238281 L 67.238281 25.785156 L 57.515625 18.707031 L 69.53125 18.707031 Z M 73.246094 7.257812 " clip-rule="nonzero"/></clipPath><clipPath id="39c9d89283"><path d="M 102.679688 8.164062 L 134.183594 8.164062 L 134.183594 38.144531 L 102.679688 38.144531 Z M 102.679688 8.164062 " clip-rule="nonzero"/></clipPath><clipPath id="8e8ce9e8f9"><path d="M 118.410156 8.164062 L 122.121094 19.617188 L 134.136719 19.617188 L 124.417969 26.691406 L 128.128906 38.144531 L 118.410156 31.066406 L 108.6875 38.144531 L 112.402344 26.691406 L 102.679688 19.617188 L 114.695312 19.617188 Z M 118.410156 8.164062 " clip-rule="nonzero"/></clipPath><clipPath id="06d8c6eb1d"><path d="M 150.109375 8.164062 L 181.609375 8.164062 L 181.609375 38.144531 L 150.109375 38.144531 Z M 150.109375 8.164062 " clip-rule="nonzero"/></clipPath><clipPath id="363b74670f"><path d="M 165.835938 8.164062 L 169.546875 19.617188 L 181.5625 19.617188 L 171.84375 26.691406 L 175.554688 38.144531 L 165.835938 31.066406 L 156.113281 38.144531 L 159.828125 26.691406 L 150.109375 19.617188 L 162.121094 19.617188 Z M 165.835938 8.164062 " clip-rule="nonzero"/></clipPath><clipPath id="4f869e1f32"><path d="M 197.109375 7.257812 L 228.609375 7.257812 L 228.609375 37.238281 L 197.109375 37.238281 Z M 197.109375 7.257812 " clip-rule="nonzero"/></clipPath><clipPath id="73b87d04ba"><path d="M 212.835938 7.257812 L 216.546875 18.707031 L 228.5625 18.707031 L 218.84375 25.785156 L 222.554688 37.238281 L 212.835938 30.160156 L 203.113281 37.238281 L 206.828125 25.785156 L 197.109375 18.707031 L 209.121094 18.707031 Z M 212.835938 7.257812 " clip-rule="nonzero"/></clipPath><clipPath id="d769203d6b"><path d="M 242.273438 8.164062 L 273.777344 8.164062 L 273.777344 38.144531 L 242.273438 38.144531 Z M 242.273438 8.164062 " clip-rule="nonzero"/></clipPath><clipPath id="ec69d23fd1"><path d="M 258 8.164062 L 261.710938 19.617188 L 273.726562 19.617188 L 264.007812 26.691406 L 267.71875 38.144531 L 258 31.066406 L 248.28125 38.144531 L 251.992188 26.691406 L 242.273438 19.617188 L 254.285156 19.617188 Z M 258 8.164062 " clip-rule="nonzero"/></clipPath><clipPath id="0dde1f6c7c"><path d="M 287.4375 9.070312 L 318.941406 9.070312 L 318.941406 39.054688 L 287.4375 39.054688 Z M 287.4375 9.070312 " clip-rule="nonzero"/></clipPath><clipPath id="083a07f2ca"><path d="M 303.164062 9.070312 L 306.878906 20.523438 L 318.890625 20.523438 L 309.171875 27.601562 L 312.882812 39.054688 L 303.164062 31.976562 L 293.445312 39.054688 L 297.15625 27.601562 L 287.4375 20.523438 L 299.453125 20.523438 Z M 303.164062 9.070312 " clip-rule="nonzero"/></clipPath><clipPath id="4eb99e777e"><path d="M 334.863281 9.070312 L 366.367188 9.070312 L 366.367188 39.054688 L 334.863281 39.054688 Z M 334.863281 9.070312 " clip-rule="nonzero"/></clipPath><clipPath id="69cf5ad751"><path d="M 350.589844 9.070312 L 354.304688 20.523438 L 366.320312 20.523438 L 356.597656 27.601562 L 360.3125 39.054688 L 350.589844 31.976562 L 340.871094 39.054688 L 344.582031 27.601562 L 334.863281 20.523438 L 346.878906 20.523438 Z M 350.589844 9.070312 " clip-rule="nonzero"/></clipPath><clipPath id="c40f76438b"><path d="M 381.863281 8.164062 L 413.367188 8.164062 L 413.367188 38.144531 L 381.863281 38.144531 Z M 381.863281 8.164062 " clip-rule="nonzero"/></clipPath><clipPath id="c79a35222d"><path d="M 397.589844 8.164062 L 401.304688 19.617188 L 413.320312 19.617188 L 403.597656 26.691406 L 407.3125 38.144531 L 397.589844 31.066406 L 387.871094 38.144531 L 391.582031 26.691406 L 381.863281 19.617188 L 393.878906 19.617188 Z M 397.589844 8.164062 " clip-rule="nonzero"/></clipPath><clipPath id="7eb9f9bd35"><path d="M 427.027344 9.070312 L 458.53125 9.070312 L 458.53125 39.054688 L 427.027344 39.054688 Z M 427.027344 9.070312 " clip-rule="nonzero"/></clipPath><clipPath id="297cc6412e"><path d="M 442.753906 9.070312 L 446.46875 20.523438 L 458.484375 20.523438 L 448.761719 27.601562 L 452.476562 39.054688 L 442.753906 31.976562 L 433.035156 39.054688 L 436.746094 27.601562 L 427.027344 20.523438 L 439.042969 20.523438 Z M 442.753906 9.070312 " clip-rule="nonzero"/></clipPath><clipPath id="ccb6995766"><path d="M 472.191406 9.980469 L 503.695312 9.980469 L 503.695312 39.960938 L 472.191406 39.960938 Z M 472.191406 9.980469 " clip-rule="nonzero"/></clipPath><clipPath id="985a573e3c"><path d="M 487.917969 9.980469 L 491.632812 21.433594 L 503.648438 21.433594 L 493.925781 28.507812 L 497.640625 39.960938 L 487.917969 32.882812 L 478.199219 39.960938 L 481.910156 28.507812 L 472.191406 21.433594 L 484.207031 21.433594 Z M 487.917969 9.980469 " clip-rule="nonzero"/></clipPath><clipPath id="87519e870f"><path d="M 519.617188 9.980469 L 551.121094 9.980469 L 551.121094 39.960938 L 519.617188 39.960938 Z M 519.617188 9.980469 " clip-rule="nonzero"/></clipPath><clipPath id="73bf01c019"><path d="M 535.347656 9.980469 L 539.058594 21.433594 L 551.074219 21.433594 L 541.355469 28.507812 L 545.066406 39.960938 L 535.347656 32.882812 L 525.625 39.960938 L 529.339844 28.507812 L 519.617188 21.433594 L 531.632812 21.433594 Z M 535.347656 9.980469 " clip-rule="nonzero"/></clipPath><clipPath id="4ffc00b717"><path d="M 566.617188 9.070312 L 598.121094 9.070312 L 598.121094 39.054688 L 566.617188 39.054688 Z M 566.617188 9.070312 " clip-rule="nonzero"/></clipPath><clipPath id="2e57c98645"><path d="M 582.347656 9.070312 L 586.058594 20.523438 L 598.074219 20.523438 L 588.355469 27.601562 L 592.066406 39.054688 L 582.347656 31.976562 L 572.625 39.054688 L 576.339844 27.601562 L 566.617188 20.523438 L 578.632812 20.523438 Z M 582.347656 9.070312 " clip-rule="nonzero"/></clipPath><clipPath id="5c8c435130"><path d="M 611.78125 9.980469 L 643.285156 9.980469 L 643.285156 39.960938 L 611.78125 39.960938 Z M 611.78125 9.980469 " clip-rule="nonzero"/></clipPath><clipPath id="54252f16f1"><path d="M 627.511719 9.980469 L 631.222656 21.433594 L 643.238281 21.433594 L 633.519531 28.507812 L 637.230469 39.960938 L 627.511719 32.882812 L 617.789062 39.960938 L 621.503906 28.507812 L 611.78125 21.433594 L 623.796875 21.433594 Z M 627.511719 9.980469 " clip-rule="nonzero"/></clipPath><clipPath id="a87cd9cedd"><path d="M 656.945312 10.886719 L 688.449219 10.886719 L 688.449219 40.867188 L 656.945312 40.867188 Z M 656.945312 10.886719 " clip-rule="nonzero"/></clipPath><clipPath id="3d180d3a32"><path d="M 672.675781 10.886719 L 676.386719 22.339844 L 688.402344 22.339844 L 678.683594 29.417969 L 682.394531 40.867188 L 672.675781 33.792969 L 662.953125 40.867188 L 666.667969 29.417969 L 656.945312 22.339844 L 668.960938 22.339844 Z M 672.675781 10.886719 " clip-rule="nonzero"/></clipPath><clipPath id="8ce6df6744"><path d="M 704.375 10.886719 L 735.878906 10.886719 L 735.878906 40.867188 L 704.375 40.867188 Z M 704.375 10.886719 " clip-rule="nonzero"/></clipPath><clipPath id="01543a608f"><path d="M 720.101562 10.886719 L 723.8125 22.339844 L 735.828125 22.339844 L 726.109375 29.417969 L 729.820312 40.867188 L 720.101562 33.792969 L 710.382812 40.867188 L 714.09375 29.417969 L 704.375 22.339844 L 716.390625 22.339844 Z M 720.101562 10.886719 " clip-rule="nonzero"/></clipPath><clipPath id="a7e5382170"><path d="M 751.375 9.980469 L 782.878906 9.980469 L 782.878906 39.960938 L 751.375 39.960938 Z M 751.375 9.980469 " clip-rule="nonzero"/></clipPath><clipPath id="e25f11fe4d"><path d="M 767.101562 9.980469 L 770.8125 21.433594 L 782.828125 21.433594 L 773.109375 28.507812 L 776.820312 39.960938 L 767.101562 32.882812 L 757.382812 39.960938 L 761.09375 28.507812 L 751.375 21.433594 L 763.386719 21.433594 Z M 767.101562 9.980469 " clip-rule="nonzero"/></clipPath><clipPath id="dba8462f84"><path d="M 796.539062 10.886719 L 828 10.886719 L 828 40.867188 L 796.539062 40.867188 Z M 796.539062 10.886719 " clip-rule="nonzero"/></clipPath><clipPath id="21bc5e455d"><path d="M 812.265625 10.886719 L 815.980469 22.339844 L 827.992188 22.339844 L 818.273438 29.417969 L 821.984375 40.867188 L 812.265625 33.792969 L 802.546875 40.867188 L 806.257812 29.417969 L 796.539062 22.339844 L 808.554688 22.339844 Z M 812.265625 10.886719 " clip-rule="nonzero"/></clipPath><clipPath id="6a4522a57c"><path d="M 841.703125 11.796875 L 873.207031 11.796875 L 873.207031 41.777344 L 841.703125 41.777344 Z M 841.703125 11.796875 " clip-rule="nonzero"/></clipPath><clipPath id="aab68276b9"><path d="M 857.429688 11.796875 L 861.144531 23.246094 L 873.15625 23.246094 L 863.4375 30.324219 L 867.152344 41.777344 L 857.429688 34.699219 L 847.710938 41.777344 L 851.421875 30.324219 L 841.703125 23.246094 L 853.71875 23.246094 Z M 857.429688 11.796875 " clip-rule="nonzero"/></clipPath><clipPath id="cecee1700e"><path d="M 889.128906 11.796875 L 920.632812 11.796875 L 920.632812 41.777344 L 889.128906 41.777344 Z M 889.128906 11.796875 " clip-rule="nonzero"/></clipPath><clipPath id="9439abf54b"><path d="M 904.855469 11.796875 L 908.570312 23.246094 L 920.585938 23.246094 L 910.863281 30.324219 L 914.578125 41.777344 L 904.855469 34.699219 L 895.136719 41.777344 L 898.847656 30.324219 L 889.128906 23.246094 L 901.144531 23.246094 Z M 904.855469 11.796875 " clip-rule="nonzero"/></clipPath><clipPath id="bcaabdd11f"><path d="M 936.128906 10.886719 L 967.632812 10.886719 L 967.632812 40.867188 L 936.128906 40.867188 Z M 936.128906 10.886719 " clip-rule="nonzero"/></clipPath><clipPath id="c430c0e94d"><path d="M 951.855469 10.886719 L 955.570312 22.339844 L 967.585938 22.339844 L 957.863281 29.417969 L 961.578125 40.867188 L 951.855469 33.792969 L 942.136719 40.867188 L 945.847656 29.417969 L 936.128906 22.339844 L 948.144531 22.339844 Z M 951.855469 10.886719 " clip-rule="nonzero"/></clipPath><clipPath id="79df75bd30"><path d="M 981.292969 11.796875 L 1012.796875 11.796875 L 1012.796875 41.777344 L 981.292969 41.777344 Z M 981.292969 11.796875 " clip-rule="nonzero"/></clipPath><clipPath id="35a3bc4912"><path d="M 997.019531 11.796875 L 1000.734375 23.246094 L 1012.75 23.246094 L 1003.027344 30.324219 L 1006.742188 41.777344 L 997.019531 34.699219 L 987.300781 41.777344 L 991.015625 30.324219 L 981.292969 23.246094 L 993.308594 23.246094 Z M 997.019531 11.796875 " clip-rule="nonzero"/></clipPath></defs><g clip-path="url(#98f20c9ffb)"><path fill="#ffffff" d="M 0 0.140625 L 1024 0.140625 L 1024 575.859375 L 0 575.859375 Z M 0 0.140625 " fill-opacity="1" fill-rule="nonzero"/><path fill="#ffffff" d="M 0 0.140625 L 1024 0.140625 L 1024 575.859375 L 0 575.859375 Z M 0 0.140625 " fill-opacity="1" fill-rule="nonzero"/><path fill="#e5ebff" d="M 0 0.140625 L 1023.25 0.140625 L 1023.25 575.859375 L 0 575.859375 Z M 0 0.140625 " fill-opacity="1" fill-rule="nonzero"/></g><g clip-path="url(#15eb478444)"><g clip-path="url(#8130a48518)"><g clip-path="url(#4ab6508ff5)"><path fill="#ffffff" d="M 401.484375 -229.527344 L 1260.222656 -35.792969 L 1075.851562 781.445312 L 217.113281 587.710938 Z M 401.484375 -229.527344 " fill-opacity="1" fill-rule="nonzero"/></g></g></g><g clip-path="url(#13d02b5e02)"><g clip-path="url(#145451c8b1)"><g clip-path="url(#4dc0b63905)"><path fill="#ffffff" d="M -133.175781 27.214844 L 228.921875 -102.769531 L 352.621094 241.828125 L -9.476562 371.8125 Z M -133.175781 27.214844 " fill-opacity="1" fill-rule="nonzero"/></g></g></g><g clip-path="url(#1e9789d615)"><g clip-path="url(#7133ffc149)"><g clip-path="url(#9031321ad3)"><path fill="#ffffff" d="M 237.046875 250.265625 L 467.113281 299.414062 L 420.335938 518.363281 L 190.269531 469.210938 Z M 237.046875 250.265625 " fill-opacity="1" fill-rule="nonzero"/></g></g></g><g clip-path="url(#040e89cd01)"><g clip-path="url(#304728838f)"><g clip-path="url(#bb11a66dab)"><path fill="#ffffff" d="M 28.078125 447.855469 L 140.035156 404.042969 L 181.734375 510.585938 L 69.777344 554.402344 Z M 28.078125 447.855469 " fill-opacity="1" fill-rule="nonzero"/></g></g></g><g mask="url(#3b01abf5d0)"><g transform="matrix(1, 0, 0, 1, 0, 132)"><g clip-path="url(#e1ca3a237a)"><g clip-path="url(#8843dbb21f)"><g clip-path="url(#da5d79d959)"><path fill="#1d2764" d="M -70.921875 14.03125 L 465.101562 14.03125 L 465.101562 368.605469 L -70.921875 368.605469 Z M -70.921875 14.03125 " fill-opacity="1" fill-rule="nonzero"/></g></g><g clip-path="url(#8dbb9ebf59)"><g clip-path="url(#36ee11f26a)"><path stroke-linecap="butt" transform="matrix(0.749634, 0, 0, 0.749634, -70.920475, 14.032367)" fill="none" stroke-linejoin="miter" d="M 36.000069 -0.00148945 L 679.079377 -0.00148945 C 698.958865 -0.00148945 715.076102 16.115747 715.076102 36.000447 L 715.076102 436.992919 C 715.076102 456.872407 698.958865 472.989644 679.079377 472.989644 L 36.000069 472.989644 C 16.115369 472.989644 -0.0018673 456.872407 -0.0018673 436.992919 L -0.0018673 36.000447 C -0.0018673 16.115747 16.115369 -0.00148945 36.000069 -0.00148945 Z M 36.000069 -0.00148945 " stroke="#10287b" stroke-width="8" stroke-opacity="1" stroke-miterlimit="4"/></g></g></g></g></g><g fill="#1d2764" fill-opacity="1"><g transform="translate(524.091063, 252.01757)"><g><path d="M 27.265625 -56.28125 L 27.265625 0 L 6.59375 0 L 6.59375 -90.703125 L 27.265625 -90.703125 L 63.328125 -34.40625 L 63.546875 -34.40625 L 63.546875 -90.703125 L 84.21875 -90.703125 L 84.21875 0 L 63.546875 0 L 27.484375 -56.28125 Z M 27.265625 -56.28125 "/></g></g></g><g fill="#1d2764" fill-opacity="1"><g transform="translate(614.890564, 252.01757)"><g><path d="M 58.484375 -90.703125 L 58.484375 -72.5625 L 27.265625 -72.5625 L 27.265625 -54.53125 L 57.171875 -54.53125 L 57.171875 -36.390625 L 27.265625 -36.390625 L 27.265625 -18.140625 L 58.484375 -18.140625 L 58.484375 0 L 6.59375 0 L 6.59375 -90.703125 Z M 58.484375 -90.703125 "/></g></g></g><g fill="#1d2764" fill-opacity="1"><g transform="translate(678.648081, 252.01757)"><g><path d="M 91.46875 0 L 64.75 0 L 43.3125 -30.890625 L 21.875 0 L -3.734375 0 L 30.5625 -48.8125 L 1.984375 -90.703125 L 26.609375 -90.703125 L 43.3125 -65.96875 L 60.03125 -90.703125 L 85.75 -90.703125 L 56.0625 -48.8125 Z M 91.46875 0 "/></g></g></g><g fill="#1d2764" fill-opacity="1"><g transform="translate(766.369617, 252.01757)"><g><path d="M 0.875 -72.5625 L 0.875 -90.703125 L 64.640625 -90.703125 L 64.640625 -72.5625 L 43.09375 -72.5625 L 43.09375 0 L 22.421875 0 L 22.421875 -72.5625 Z M 0.875 -72.5625 "/></g></g></g><g fill="#1d2764" fill-opacity="1"><g transform="translate(524.091063, 383.203541)"><g><path d="M 2.53125 -45.40625 C 2.53125 -58.519531 7 -69.617188 15.9375 -78.703125 C 24.882812 -87.796875 35.660156 -92.34375 48.265625 -92.34375 C 60.941406 -92.34375 71.710938 -87.816406 80.578125 -78.765625 C 89.453125 -69.710938 93.890625 -58.59375 93.890625 -45.40625 C 93.890625 -32.132812 89.523438 -20.972656 80.796875 -11.921875 C 72.078125 -2.867188 61.234375 1.65625 48.265625 1.65625 C 34.992188 1.65625 24.050781 -2.832031 15.4375 -11.8125 C 6.832031 -20.789062 2.53125 -31.988281 2.53125 -45.40625 Z M 24.84375 -45.40625 C 24.84375 -40.644531 25.578125 -36.300781 27.046875 -32.375 C 28.515625 -28.457031 31.078125 -25.140625 34.734375 -22.421875 C 38.398438 -19.710938 42.910156 -18.359375 48.265625 -18.359375 C 55.960938 -18.359375 61.769531 -20.992188 65.6875 -26.265625 C 69.601562 -31.546875 71.5625 -37.925781 71.5625 -45.40625 C 71.5625 -52.8125 69.566406 -59.171875 65.578125 -64.484375 C 61.585938 -69.796875 55.816406 -72.453125 48.265625 -72.453125 C 40.785156 -72.453125 35.007812 -69.796875 30.9375 -64.484375 C 26.875 -59.171875 24.84375 -52.8125 24.84375 -45.40625 Z M 24.84375 -45.40625 "/></g></g></g><g fill="#1d2764" fill-opacity="1"><g transform="translate(620.496829, 383.203541)"><g><path d="M 6.59375 -90.703125 L 34.734375 -90.703125 C 43.242188 -90.703125 50.023438 -88.882812 55.078125 -85.25 C 60.140625 -81.625 62.671875 -75.742188 62.671875 -67.609375 C 62.671875 -58.523438 58.894531 -52.039062 51.34375 -48.15625 C 64.238281 -45.882812 70.6875 -38.257812 70.6875 -25.28125 C 70.6875 -17.664062 68.046875 -11.546875 62.765625 -6.921875 C 57.492188 -2.304688 50.238281 0 41 0 L 6.59375 0 Z M 27.265625 -55.1875 L 28.90625 -55.1875 C 33.53125 -55.1875 36.976562 -55.992188 39.25 -57.609375 C 41.519531 -59.222656 42.65625 -61.859375 42.65625 -65.515625 C 42.65625 -71.671875 38.070312 -74.75 28.90625 -74.75 L 27.265625 -74.75 Z M 27.265625 -15.9375 L 33.75 -15.9375 C 43.863281 -15.9375 48.921875 -19.3125 48.921875 -26.0625 C 48.921875 -30.09375 47.65625 -32.984375 45.125 -34.734375 C 42.601562 -36.492188 38.8125 -37.375 33.75 -37.375 L 27.265625 -37.375 Z M 27.265625 -15.9375 "/></g></g></g><g fill="#1d2764" fill-opacity="1"><g transform="translate(693.708044, 383.203541)"><g><path d="M 52.65625 -90.703125 L 89.265625 0 L 67.0625 0 L 60.359375 -18.140625 L 25.828125 -18.140625 L 19.125 0 L -3.078125 0 L 33.53125 -90.703125 Z M 53.3125 -36.28125 L 43.203125 -62.671875 L 42.984375 -62.671875 L 32.875 -36.28125 Z M 53.3125 -36.28125 "/></g></g></g><g fill="#1d2764" fill-opacity="1"><g transform="translate(779.89062, 383.203541)"><g><path d="M 81.578125 0 L 77.28125 -53.765625 L 76.734375 -53.765625 L 58.15625 -0.546875 L 45.84375 -0.546875 L 27.265625 -53.765625 L 26.71875 -53.765625 L 22.421875 0 L 1.765625 0 L 9.890625 -90.703125 L 31.875 -90.703125 L 52 -38.375 L 72.125 -90.703125 L 94.109375 -90.703125 L 102.234375 0 Z M 81.578125 0 "/></g></g></g><g fill="#1d2764" fill-opacity="1"><g transform="translate(883.881329, 383.203541)"><g><path d="M 52.65625 -90.703125 L 89.265625 0 L 67.0625 0 L 60.359375 -18.140625 L 25.828125 -18.140625 L 19.125 0 L -3.078125 0 L 33.53125 -90.703125 Z M 53.3125 -36.28125 L 43.203125 -62.671875 L 42.984375 -62.671875 L 32.875 -36.28125 Z M 53.3125 -36.28125 "/></g></g></g><g fill="#1d2764" fill-opacity="1"><g transform="translate(524.091063, 435.388174)"><g><path d="M 5.90625 -19.625 L 5.90625 -3.921875 L 12.65625 -3.921875 L 12.65625 0 L 1.421875 0 L 1.421875 -19.625 Z M 5.90625 -19.625 "/></g></g></g><g fill="#1d2764" fill-opacity="1"><g transform="translate(537.531986, 435.388174)"><g><path d="M 13.78125 -5.515625 L 4.921875 -5.515625 C 4.921875 -4.660156 5.195312 -4.023438 5.75 -3.609375 C 6.3125 -3.203125 6.914062 -3 7.5625 -3 C 8.25 -3 8.789062 -3.085938 9.1875 -3.265625 C 9.582031 -3.453125 10.035156 -3.816406 10.546875 -4.359375 L 13.59375 -2.828125 C 12.320312 -0.703125 10.210938 0.359375 7.265625 0.359375 C 5.421875 0.359375 3.835938 -0.269531 2.515625 -1.53125 C 1.203125 -2.789062 0.546875 -4.304688 0.546875 -6.078125 C 0.546875 -7.859375 1.203125 -9.382812 2.515625 -10.65625 C 3.835938 -11.925781 5.421875 -12.5625 7.265625 -12.5625 C 9.191406 -12.5625 10.757812 -12 11.96875 -10.875 C 13.1875 -9.757812 13.796875 -8.164062 13.796875 -6.09375 C 13.796875 -5.800781 13.789062 -5.609375 13.78125 -5.515625 Z M 5.046875 -7.859375 L 9.6875 -7.859375 C 9.59375 -8.492188 9.34375 -8.976562 8.9375 -9.3125 C 8.53125 -9.65625 8.007812 -9.828125 7.375 -9.828125 C 6.675781 -9.828125 6.117188 -9.644531 5.703125 -9.28125 C 5.296875 -8.914062 5.078125 -8.441406 5.046875 -7.859375 Z M 5.046875 -7.859375 "/></g></g></g><g fill="#1d2764" fill-opacity="1"><g transform="translate(551.876894, 435.388174)"><g><path d="M 2.25 -1.5 C 1.113281 -2.75 0.546875 -4.28125 0.546875 -6.09375 C 0.546875 -7.90625 1.113281 -9.4375 2.25 -10.6875 C 3.394531 -11.9375 4.847656 -12.5625 6.609375 -12.5625 C 8.234375 -12.5625 9.566406 -12.054688 10.609375 -11.046875 L 10.609375 -12.203125 L 14.828125 -12.203125 L 14.828125 0 L 10.65625 0 L 10.65625 -1.375 L 10.609375 -1.375 C 9.566406 -0.21875 8.234375 0.359375 6.609375 0.359375 C 4.847656 0.359375 3.394531 -0.257812 2.25 -1.5 Z M 5.828125 -8.15625 C 5.285156 -7.625 5.015625 -6.9375 5.015625 -6.09375 C 5.015625 -5.25 5.273438 -4.5625 5.796875 -4.03125 C 6.328125 -3.5 7.019531 -3.234375 7.875 -3.234375 C 8.695312 -3.234375 9.375 -3.503906 9.90625 -4.046875 C 10.4375 -4.585938 10.703125 -5.269531 10.703125 -6.09375 C 10.703125 -6.9375 10.425781 -7.625 9.875 -8.15625 C 9.332031 -8.695312 8.664062 -8.96875 7.875 -8.96875 C 7.0625 -8.96875 6.378906 -8.695312 5.828125 -8.15625 Z M 5.828125 -8.15625 "/></g></g></g><g fill="#1d2764" fill-opacity="1"><g transform="translate(568.124941, 435.388174)"><g><path d="M 1.421875 0 L 1.421875 -12.203125 L 5.640625 -12.203125 L 5.640625 -10.453125 L 5.6875 -10.453125 C 5.71875 -10.515625 5.769531 -10.59375 5.84375 -10.6875 C 5.914062 -10.78125 6.066406 -10.945312 6.296875 -11.1875 C 6.535156 -11.425781 6.789062 -11.640625 7.0625 -11.828125 C 7.332031 -12.015625 7.679688 -12.179688 8.109375 -12.328125 C 8.535156 -12.484375 8.972656 -12.5625 9.421875 -12.5625 C 9.878906 -12.5625 10.332031 -12.5 10.78125 -12.375 C 11.226562 -12.25 11.550781 -12.125 11.75 -12 L 12.09375 -11.796875 L 10.328125 -8.234375 C 9.804688 -8.679688 9.078125 -8.90625 8.140625 -8.90625 C 7.628906 -8.90625 7.191406 -8.789062 6.828125 -8.5625 C 6.460938 -8.34375 6.203125 -8.070312 6.046875 -7.75 C 5.898438 -7.4375 5.796875 -7.164062 5.734375 -6.9375 C 5.671875 -6.71875 5.640625 -6.546875 5.640625 -6.421875 L 5.640625 0 Z M 1.421875 0 "/></g></g></g><g fill="#1d2764" fill-opacity="1"><g transform="translate(579.971988, 435.388174)"><g><path d="M 1.421875 0 L 1.421875 -12.203125 L 5.640625 -12.203125 L 5.640625 -10.921875 L 5.6875 -10.921875 C 6.78125 -12.015625 7.945312 -12.5625 9.1875 -12.5625 C 9.789062 -12.5625 10.390625 -12.484375 10.984375 -12.328125 C 11.578125 -12.171875 12.144531 -11.925781 12.6875 -11.59375 C 13.238281 -11.257812 13.6875 -10.785156 14.03125 -10.171875 C 14.375 -9.554688 14.546875 -8.847656 14.546875 -8.046875 L 14.546875 0 L 10.328125 0 L 10.328125 -6.90625 C 10.328125 -7.539062 10.125 -8.09375 9.71875 -8.5625 C 9.3125 -9.039062 8.785156 -9.28125 8.140625 -9.28125 C 7.503906 -9.28125 6.925781 -9.035156 6.40625 -8.546875 C 5.894531 -8.054688 5.640625 -7.507812 5.640625 -6.90625 L 5.640625 0 Z M 1.421875 0 "/></g></g></g><g fill="#1d2764" fill-opacity="1"><g transform="translate(595.696678, 435.388174)"><g/></g></g><g fill="#1d2764" fill-opacity="1"><g transform="translate(602.191143, 435.388174)"><g><path d="M 2.25 -1.5 C 1.113281 -2.75 0.546875 -4.28125 0.546875 -6.09375 C 0.546875 -7.90625 1.113281 -9.4375 2.25 -10.6875 C 3.394531 -11.9375 4.847656 -12.5625 6.609375 -12.5625 C 8.234375 -12.5625 9.566406 -12.054688 10.609375 -11.046875 L 10.609375 -12.203125 L 14.828125 -12.203125 L 14.828125 0 L 10.65625 0 L 10.65625 -1.375 L 10.609375 -1.375 C 9.566406 -0.21875 8.234375 0.359375 6.609375 0.359375 C 4.847656 0.359375 3.394531 -0.257812 2.25 -1.5 Z M 5.828125 -8.15625 C 5.285156 -7.625 5.015625 -6.9375 5.015625 -6.09375 C 5.015625 -5.25 5.273438 -4.5625 5.796875 -4.03125 C 6.328125 -3.5 7.019531 -3.234375 7.875 -3.234375 C 8.695312 -3.234375 9.375 -3.503906 9.90625 -4.046875 C 10.4375 -4.585938 10.703125 -5.269531 10.703125 -6.09375 C 10.703125 -6.9375 10.425781 -7.625 9.875 -8.15625 C 9.332031 -8.695312 8.664062 -8.96875 7.875 -8.96875 C 7.0625 -8.96875 6.378906 -8.695312 5.828125 -8.15625 Z M 5.828125 -8.15625 "/></g></g></g><g fill="#1d2764" fill-opacity="1"><g transform="translate(618.43919, 435.388174)"><g><path d="M 13.984375 -10.6875 C 15.128906 -9.4375 15.703125 -7.90625 15.703125 -6.09375 C 15.703125 -4.28125 15.128906 -2.75 13.984375 -1.5 C 12.847656 -0.257812 11.398438 0.359375 9.640625 0.359375 C 8.015625 0.359375 6.679688 -0.21875 5.640625 -1.375 L 5.59375 -1.375 L 5.59375 0 L 1.421875 0 L 1.421875 -20.46875 L 5.640625 -20.46875 L 5.640625 -11.046875 C 6.679688 -12.054688 8.015625 -12.5625 9.640625 -12.5625 C 11.398438 -12.5625 12.847656 -11.9375 13.984375 -10.6875 Z M 10.4375 -4.03125 C 10.96875 -4.5625 11.234375 -5.25 11.234375 -6.09375 C 11.234375 -6.9375 10.957031 -7.625 10.40625 -8.15625 C 9.863281 -8.695312 9.1875 -8.96875 8.375 -8.96875 C 7.582031 -8.96875 6.910156 -8.695312 6.359375 -8.15625 C 5.816406 -7.625 5.546875 -6.9375 5.546875 -6.09375 C 5.546875 -5.269531 5.8125 -4.585938 6.34375 -4.046875 C 6.875 -3.503906 7.550781 -3.234375 8.375 -3.234375 C 9.226562 -3.234375 9.914062 -3.5 10.4375 -4.03125 Z M 10.4375 -4.03125 "/></g></g></g><g fill="#1d2764" fill-opacity="1"><g transform="translate(634.687237, 435.388174)"><g><path d="M 2.578125 -1.453125 C 1.222656 -2.660156 0.546875 -4.207031 0.546875 -6.09375 C 0.546875 -7.976562 1.25 -9.523438 2.65625 -10.734375 C 4.070312 -11.953125 5.820312 -12.5625 7.90625 -12.5625 C 9.945312 -12.5625 11.671875 -11.953125 13.078125 -10.734375 C 14.484375 -9.515625 15.1875 -7.96875 15.1875 -6.09375 C 15.1875 -4.21875 14.5 -2.671875 13.125 -1.453125 C 11.75 -0.242188 10.007812 0.359375 7.90625 0.359375 C 5.707031 0.359375 3.929688 -0.242188 2.578125 -1.453125 Z M 5.828125 -8.15625 C 5.285156 -7.625 5.015625 -6.9375 5.015625 -6.09375 C 5.015625 -5.25 5.273438 -4.5625 5.796875 -4.03125 C 6.328125 -3.5 7.019531 -3.234375 7.875 -3.234375 C 8.695312 -3.234375 9.375 -3.503906 9.90625 -4.046875 C 10.4375 -4.585938 10.703125 -5.269531 10.703125 -6.09375 C 10.703125 -6.9375 10.425781 -7.625 9.875 -8.15625 C 9.332031 -8.695312 8.664062 -8.96875 7.875 -8.96875 C 7.0625 -8.96875 6.378906 -8.695312 5.828125 -8.15625 Z M 5.828125 -8.15625 "/></g></g></g><g fill="#1d2764" fill-opacity="1"><g transform="translate(650.411927, 435.388174)"><g><path d="M 5.40625 -12.203125 L 5.40625 -6.40625 C 5.40625 -5.195312 5.585938 -4.335938 5.953125 -3.828125 C 6.316406 -3.316406 6.929688 -3.0625 7.796875 -3.0625 C 8.671875 -3.0625 9.289062 -3.316406 9.65625 -3.828125 C 10.019531 -4.335938 10.203125 -5.195312 10.203125 -6.40625 L 10.203125 -12.203125 L 14.421875 -12.203125 L 14.421875 -5.375 C 14.421875 -3.34375 13.890625 -1.878906 12.828125 -0.984375 C 11.773438 -0.0859375 10.097656 0.359375 7.796875 0.359375 C 5.503906 0.359375 3.828125 -0.0859375 2.765625 -0.984375 C 1.710938 -1.878906 1.1875 -3.34375 1.1875 -5.375 L 1.1875 -12.203125 Z M 5.40625 -12.203125 "/></g></g></g><g fill="#1d2764" fill-opacity="1"><g transform="translate(666.017667, 435.388174)"><g><path d="M 2.140625 -12.203125 L 2.140625 -16.75 L 6.359375 -16.75 L 6.359375 -12.203125 L 8.921875 -12.203125 L 8.921875 -9 L 6.359375 -9 L 6.359375 -5.109375 C 6.359375 -3.984375 6.675781 -3.421875 7.3125 -3.421875 C 7.46875 -3.421875 7.628906 -3.453125 7.796875 -3.515625 C 7.972656 -3.578125 8.109375 -3.644531 8.203125 -3.71875 L 8.359375 -3.8125 L 9.40625 -0.40625 C 8.5 0.101562 7.46875 0.359375 6.3125 0.359375 C 5.507812 0.359375 4.820312 0.222656 4.25 -0.046875 C 3.6875 -0.328125 3.253906 -0.703125 2.953125 -1.171875 C 2.660156 -1.640625 2.453125 -2.128906 2.328125 -2.640625 C 2.203125 -3.160156 2.140625 -3.71875 2.140625 -4.3125 L 2.140625 -9 L 0.375 -9 L 0.375 -12.203125 Z M 2.140625 -12.203125 "/></g></g></g><g fill="#1d2764" fill-opacity="1"><g transform="translate(675.414414, 435.388174)"><g/></g></g><g fill="#1d2764" fill-opacity="1"><g transform="translate(681.908879, 435.388174)"><g><path d="M 2.25 -1.5 C 1.113281 -2.75 0.546875 -4.28125 0.546875 -6.09375 C 0.546875 -7.90625 1.113281 -9.4375 2.25 -10.6875 C 3.394531 -11.9375 4.847656 -12.5625 6.609375 -12.5625 C 8.234375 -12.5625 9.566406 -12.054688 10.609375 -11.046875 L 10.609375 -20.46875 L 14.828125 -20.46875 L 14.828125 0 L 10.65625 0 L 10.65625 -1.375 L 10.609375 -1.375 C 9.566406 -0.21875 8.234375 0.359375 6.609375 0.359375 C 4.847656 0.359375 3.394531 -0.257812 2.25 -1.5 Z M 5.828125 -8.15625 C 5.285156 -7.625 5.015625 -6.9375 5.015625 -6.09375 C 5.015625 -5.25 5.273438 -4.5625 5.796875 -4.03125 C 6.328125 -3.5 7.019531 -3.234375 7.875 -3.234375 C 8.695312 -3.234375 9.375 -3.503906 9.90625 -4.046875 C 10.4375 -4.585938 10.703125 -5.269531 10.703125 -6.09375 C 10.703125 -6.9375 10.425781 -7.625 9.875 -8.15625 C 9.332031 -8.695312 8.664062 -8.96875 7.875 -8.96875 C 7.0625 -8.96875 6.378906 -8.695312 5.828125 -8.15625 Z M 5.828125 -8.15625 "/></g></g></g><g fill="#1d2764" fill-opacity="1"><g transform="translate(698.156926, 435.388174)"><g><path d="M 1.828125 -19.015625 C 2.316406 -19.503906 2.898438 -19.75 3.578125 -19.75 C 4.265625 -19.75 4.851562 -19.503906 5.34375 -19.015625 C 5.84375 -18.523438 6.09375 -17.9375 6.09375 -17.25 C 6.09375 -16.570312 5.84375 -15.984375 5.34375 -15.484375 C 4.851562 -14.992188 4.265625 -14.75 3.578125 -14.75 C 2.898438 -14.75 2.316406 -14.992188 1.828125 -15.484375 C 1.335938 -15.984375 1.09375 -16.570312 1.09375 -17.25 C 1.09375 -17.9375 1.335938 -18.523438 1.828125 -19.015625 Z M 1.421875 -12.203125 L 1.421875 0 L 5.640625 0 L 5.640625 -12.203125 Z M 1.421875 -12.203125 "/></g></g></g><g fill="#1d2764" fill-opacity="1"><g transform="translate(705.341282, 435.388174)"><g><path d="M 2.140625 -12.203125 L 2.140625 -14.796875 C 2.160156 -16.617188 2.585938 -18.078125 3.421875 -19.171875 C 4.265625 -20.273438 5.429688 -20.828125 6.921875 -20.828125 C 7.554688 -20.828125 8.160156 -20.734375 8.734375 -20.546875 C 9.316406 -20.367188 9.738281 -20.179688 10 -19.984375 L 10.40625 -19.734375 L 8.921875 -16.75 C 8.546875 -16.976562 8.125 -17.09375 7.65625 -17.09375 C 7.132812 -17.09375 6.785156 -16.910156 6.609375 -16.546875 C 6.441406 -16.191406 6.359375 -15.570312 6.359375 -14.6875 L 6.359375 -12.203125 L 9.15625 -12.203125 L 9.15625 -9 L 6.359375 -9 L 6.359375 0 L 2.140625 0 L 2.140625 -9 L 0.375 -9 L 0.375 -12.203125 Z M 2.140625 -12.203125 "/></g></g></g><g fill="#1d2764" fill-opacity="1"><g transform="translate(714.262244, 435.388174)"><g><path d="M 2.140625 -12.203125 L 2.140625 -14.796875 C 2.160156 -16.617188 2.585938 -18.078125 3.421875 -19.171875 C 4.265625 -20.273438 5.429688 -20.828125 6.921875 -20.828125 C 7.554688 -20.828125 8.160156 -20.734375 8.734375 -20.546875 C 9.316406 -20.367188 9.738281 -20.179688 10 -19.984375 L 10.40625 -19.734375 L 8.921875 -16.75 C 8.546875 -16.976562 8.125 -17.09375 7.65625 -17.09375 C 7.132812 -17.09375 6.785156 -16.910156 6.609375 -16.546875 C 6.441406 -16.191406 6.359375 -15.570312 6.359375 -14.6875 L 6.359375 -12.203125 L 9.15625 -12.203125 L 9.15625 -9 L 6.359375 -9 L 6.359375 0 L 2.140625 0 L 2.140625 -9 L 0.375 -9 L 0.375 -12.203125 Z M 2.140625 -12.203125 "/></g></g></g><g fill="#1d2764" fill-opacity="1"><g transform="translate(723.183205, 435.388174)"><g><path d="M 13.78125 -5.515625 L 4.921875 -5.515625 C 4.921875 -4.660156 5.195312 -4.023438 5.75 -3.609375 C 6.3125 -3.203125 6.914062 -3 7.5625 -3 C 8.25 -3 8.789062 -3.085938 9.1875 -3.265625 C 9.582031 -3.453125 10.035156 -3.816406 10.546875 -4.359375 L 13.59375 -2.828125 C 12.320312 -0.703125 10.210938 0.359375 7.265625 0.359375 C 5.421875 0.359375 3.835938 -0.269531 2.515625 -1.53125 C 1.203125 -2.789062 0.546875 -4.304688 0.546875 -6.078125 C 0.546875 -7.859375 1.203125 -9.382812 2.515625 -10.65625 C 3.835938 -11.925781 5.421875 -12.5625 7.265625 -12.5625 C 9.191406 -12.5625 10.757812 -12 11.96875 -10.875 C 13.1875 -9.757812 13.796875 -8.164062 13.796875 -6.09375 C 13.796875 -5.800781 13.789062 -5.609375 13.78125 -5.515625 Z M 5.046875 -7.859375 L 9.6875 -7.859375 C 9.59375 -8.492188 9.34375 -8.976562 8.9375 -9.3125 C 8.53125 -9.65625 8.007812 -9.828125 7.375 -9.828125 C 6.675781 -9.828125 6.117188 -9.644531 5.703125 -9.28125 C 5.296875 -8.914062 5.078125 -8.441406 5.046875 -7.859375 Z M 5.046875 -7.859375 "/></g></g></g><g fill="#1d2764" fill-opacity="1"><g transform="translate(737.528102, 435.388174)"><g><path d="M 1.421875 0 L 1.421875 -12.203125 L 5.640625 -12.203125 L 5.640625 -10.453125 L 5.6875 -10.453125 C 5.71875 -10.515625 5.769531 -10.59375 5.84375 -10.6875 C 5.914062 -10.78125 6.066406 -10.945312 6.296875 -11.1875 C 6.535156 -11.425781 6.789062 -11.640625 7.0625 -11.828125 C 7.332031 -12.015625 7.679688 -12.179688 8.109375 -12.328125 C 8.535156 -12.484375 8.972656 -12.5625 9.421875 -12.5625 C 9.878906 -12.5625 10.332031 -12.5 10.78125 -12.375 C 11.226562 -12.25 11.550781 -12.125 11.75 -12 L 12.09375 -11.796875 L 10.328125 -8.234375 C 9.804688 -8.679688 9.078125 -8.90625 8.140625 -8.90625 C 7.628906 -8.90625 7.191406 -8.789062 6.828125 -8.5625 C 6.460938 -8.34375 6.203125 -8.070312 6.046875 -7.75 C 5.898438 -7.4375 5.796875 -7.164062 5.734375 -6.9375 C 5.671875 -6.71875 5.640625 -6.546875 5.640625 -6.421875 L 5.640625 0 Z M 1.421875 0 "/></g></g></g><g fill="#1d2764" fill-opacity="1"><g transform="translate(749.375148, 435.388174)"><g><path d="M 13.78125 -5.515625 L 4.921875 -5.515625 C 4.921875 -4.660156 5.195312 -4.023438 5.75 -3.609375 C 6.3125 -3.203125 6.914062 -3 7.5625 -3 C 8.25 -3 8.789062 -3.085938 9.1875 -3.265625 C 9.582031 -3.453125 10.035156 -3.816406 10.546875 -4.359375 L 13.59375 -2.828125 C 12.320312 -0.703125 10.210938 0.359375 7.265625 0.359375 C 5.421875 0.359375 3.835938 -0.269531 2.515625 -1.53125 C 1.203125 -2.789062 0.546875 -4.304688 0.546875 -6.078125 C 0.546875 -7.859375 1.203125 -9.382812 2.515625 -10.65625 C 3.835938 -11.925781 5.421875 -12.5625 7.265625 -12.5625 C 9.191406 -12.5625 10.757812 -12 11.96875 -10.875 C 13.1875 -9.757812 13.796875 -8.164062 13.796875 -6.09375 C 13.796875 -5.800781 13.789062 -5.609375 13.78125 -5.515625 Z M 5.046875 -7.859375 L 9.6875 -7.859375 C 9.59375 -8.492188 9.34375 -8.976562 8.9375 -9.3125 C 8.53125 -9.65625 8.007812 -9.828125 7.375 -9.828125 C 6.675781 -9.828125 6.117188 -9.644531 5.703125 -9.28125 C 5.296875 -8.914062 5.078125 -8.441406 5.046875 -7.859375 Z M 5.046875 -7.859375 "/></g></g></g><g fill="#1d2764" fill-opacity="1"><g transform="translate(763.720045, 435.388174)"><g><path d="M 1.421875 0 L 1.421875 -12.203125 L 5.640625 -12.203125 L 5.640625 -10.921875 L 5.6875 -10.921875 C 6.78125 -12.015625 7.945312 -12.5625 9.1875 -12.5625 C 9.789062 -12.5625 10.390625 -12.484375 10.984375 -12.328125 C 11.578125 -12.171875 12.144531 -11.925781 12.6875 -11.59375 C 13.238281 -11.257812 13.6875 -10.785156 14.03125 -10.171875 C 14.375 -9.554688 14.546875 -8.847656 14.546875 -8.046875 L 14.546875 0 L 10.328125 0 L 10.328125 -6.90625 C 10.328125 -7.539062 10.125 -8.09375 9.71875 -8.5625 C 9.3125 -9.039062 8.785156 -9.28125 8.140625 -9.28125 C 7.503906 -9.28125 6.925781 -9.035156 6.40625 -8.546875 C 5.894531 -8.054688 5.640625 -7.507812 5.640625 -6.90625 L 5.640625 0 Z M 1.421875 0 "/></g></g></g><g fill="#1d2764" fill-opacity="1"><g transform="translate(779.444746, 435.388174)"><g><path d="M 2.140625 -12.203125 L 2.140625 -16.75 L 6.359375 -16.75 L 6.359375 -12.203125 L 8.921875 -12.203125 L 8.921875 -9 L 6.359375 -9 L 6.359375 -5.109375 C 6.359375 -3.984375 6.675781 -3.421875 7.3125 -3.421875 C 7.46875 -3.421875 7.628906 -3.453125 7.796875 -3.515625 C 7.972656 -3.578125 8.109375 -3.644531 8.203125 -3.71875 L 8.359375 -3.8125 L 9.40625 -0.40625 C 8.5 0.101562 7.46875 0.359375 6.3125 0.359375 C 5.507812 0.359375 4.820312 0.222656 4.25 -0.046875 C 3.6875 -0.328125 3.253906 -0.703125 2.953125 -1.171875 C 2.660156 -1.640625 2.453125 -2.128906 2.328125 -2.640625 C 2.203125 -3.160156 2.140625 -3.71875 2.140625 -4.3125 L 2.140625 -9 L 0.375 -9 L 0.375 -12.203125 Z M 2.140625 -12.203125 "/></g></g></g><g fill="#1d2764" fill-opacity="1"><g transform="translate(788.852462, 435.388174)"><g/></g></g><g fill="#1d2764" fill-opacity="1"><g transform="translate(795.346927, 435.388174)"><g/></g></g><g fill="#1d2764" fill-opacity="1"><g transform="translate(801.84222, 435.388174)"><g><path d="M 13.984375 -10.6875 C 15.128906 -9.445312 15.703125 -7.921875 15.703125 -6.109375 C 15.703125 -4.304688 15.128906 -2.773438 13.984375 -1.515625 C 12.847656 -0.265625 11.398438 0.359375 9.640625 0.359375 C 8.015625 0.359375 6.679688 -0.148438 5.640625 -1.171875 L 5.640625 6.1875 L 1.421875 6.1875 L 1.421875 -12.203125 L 5.59375 -12.203125 L 5.59375 -10.828125 L 5.640625 -10.828125 C 6.679688 -11.984375 8.015625 -12.5625 9.640625 -12.5625 C 11.398438 -12.5625 12.847656 -11.9375 13.984375 -10.6875 Z M 10.40625 -4.046875 C 10.957031 -4.585938 11.234375 -5.273438 11.234375 -6.109375 C 11.234375 -6.953125 10.96875 -7.640625 10.4375 -8.171875 C 9.914062 -8.703125 9.226562 -8.96875 8.375 -8.96875 C 7.550781 -8.96875 6.875 -8.695312 6.34375 -8.15625 C 5.8125 -7.625 5.546875 -6.941406 5.546875 -6.109375 C 5.546875 -5.273438 5.816406 -4.585938 6.359375 -4.046875 C 6.910156 -3.503906 7.582031 -3.234375 8.375 -3.234375 C 9.1875 -3.234375 9.863281 -3.503906 10.40625 -4.046875 Z M 10.40625 -4.046875 "/></g></g></g><g fill="#1d2764" fill-opacity="1"><g transform="translate(818.090267, 435.388174)"><g><path d="M 1.421875 0 L 1.421875 -12.203125 L 5.640625 -12.203125 L 5.640625 -10.453125 L 5.6875 -10.453125 C 5.71875 -10.515625 5.769531 -10.59375 5.84375 -10.6875 C 5.914062 -10.78125 6.066406 -10.945312 6.296875 -11.1875 C 6.535156 -11.425781 6.789062 -11.640625 7.0625 -11.828125 C 7.332031 -12.015625 7.679688 -12.179688 8.109375 -12.328125 C 8.535156 -12.484375 8.972656 -12.5625 9.421875 -12.5625 C 9.878906 -12.5625 10.332031 -12.5 10.78125 -12.375 C 11.226562 -12.25 11.550781 -12.125 11.75 -12 L 12.09375 -11.796875 L 10.328125 -8.234375 C 9.804688 -8.679688 9.078125 -8.90625 8.140625 -8.90625 C 7.628906 -8.90625 7.191406 -8.789062 6.828125 -8.5625 C 6.460938 -8.34375 6.203125 -8.070312 6.046875 -7.75 C 5.898438 -7.4375 5.796875 -7.164062 5.734375 -6.9375 C 5.671875 -6.71875 5.640625 -6.546875 5.640625 -6.421875 L 5.640625 0 Z M 1.421875 0 "/></g></g></g><g fill="#1d2764" fill-opacity="1"><g transform="translate(829.937314, 435.388174)"><g><path d="M 13.78125 -5.515625 L 4.921875 -5.515625 C 4.921875 -4.660156 5.195312 -4.023438 5.75 -3.609375 C 6.3125 -3.203125 6.914062 -3 7.5625 -3 C 8.25 -3 8.789062 -3.085938 9.1875 -3.265625 C 9.582031 -3.453125 10.035156 -3.816406 10.546875 -4.359375 L 13.59375 -2.828125 C 12.320312 -0.703125 10.210938 0.359375 7.265625 0.359375 C 5.421875 0.359375 3.835938 -0.269531 2.515625 -1.53125 C 1.203125 -2.789062 0.546875 -4.304688 0.546875 -6.078125 C 0.546875 -7.859375 1.203125 -9.382812 2.515625 -10.65625 C 3.835938 -11.925781 5.421875 -12.5625 7.265625 -12.5625 C 9.191406 -12.5625 10.757812 -12 11.96875 -10.875 C 13.1875 -9.757812 13.796875 -8.164062 13.796875 -6.09375 C 13.796875 -5.800781 13.789062 -5.609375 13.78125 -5.515625 Z M 5.046875 -7.859375 L 9.6875 -7.859375 C 9.59375 -8.492188 9.34375 -8.976562 8.9375 -9.3125 C 8.53125 -9.65625 8.007812 -9.828125 7.375 -9.828125 C 6.675781 -9.828125 6.117188 -9.644531 5.703125 -9.28125 C 5.296875 -8.914062 5.078125 -8.441406 5.046875 -7.859375 Z M 5.046875 -7.859375 "/></g></g></g><g fill="#1d2764" fill-opacity="1"><g transform="translate(844.282222, 435.388174)"><g><path d="M 6.734375 -12.5625 C 7.429688 -12.5625 8.117188 -12.484375 8.796875 -12.328125 C 9.484375 -12.171875 9.992188 -12.007812 10.328125 -11.84375 L 10.828125 -11.609375 L 9.453125 -8.859375 C 8.492188 -9.359375 7.585938 -9.609375 6.734375 -9.609375 C 6.253906 -9.609375 5.914062 -9.554688 5.71875 -9.453125 C 5.519531 -9.347656 5.421875 -9.15625 5.421875 -8.875 C 5.421875 -8.8125 5.425781 -8.75 5.4375 -8.6875 C 5.457031 -8.625 5.488281 -8.5625 5.53125 -8.5 C 5.582031 -8.445312 5.628906 -8.398438 5.671875 -8.359375 C 5.710938 -8.328125 5.78125 -8.285156 5.875 -8.234375 C 5.96875 -8.179688 6.039062 -8.144531 6.09375 -8.125 C 6.15625 -8.101562 6.25 -8.066406 6.375 -8.015625 C 6.5 -7.972656 6.59375 -7.9375 6.65625 -7.90625 C 6.726562 -7.882812 6.835938 -7.847656 6.984375 -7.796875 C 7.128906 -7.753906 7.242188 -7.722656 7.328125 -7.703125 C 7.816406 -7.566406 8.242188 -7.410156 8.609375 -7.234375 C 8.972656 -7.054688 9.359375 -6.816406 9.765625 -6.515625 C 10.171875 -6.210938 10.484375 -5.832031 10.703125 -5.375 C 10.929688 -4.914062 11.046875 -4.394531 11.046875 -3.8125 C 11.046875 -1.03125 9.117188 0.359375 5.265625 0.359375 C 4.390625 0.359375 3.554688 0.222656 2.765625 -0.046875 C 1.984375 -0.316406 1.421875 -0.585938 1.078125 -0.859375 L 0.546875 -1.28125 L 2.265625 -4.171875 C 2.390625 -4.054688 2.550781 -3.921875 2.75 -3.765625 C 2.957031 -3.617188 3.332031 -3.414062 3.875 -3.15625 C 4.414062 -2.894531 4.882812 -2.765625 5.28125 -2.765625 C 6.15625 -2.765625 6.59375 -3.054688 6.59375 -3.640625 C 6.59375 -3.910156 6.476562 -4.117188 6.25 -4.265625 C 6.03125 -4.421875 5.65625 -4.59375 5.125 -4.78125 C 4.59375 -4.96875 4.175781 -5.144531 3.875 -5.3125 C 3.113281 -5.707031 2.507812 -6.15625 2.0625 -6.65625 C 1.625 -7.15625 1.40625 -7.816406 1.40625 -8.640625 C 1.40625 -9.878906 1.882812 -10.84375 2.84375 -11.53125 C 3.800781 -12.21875 5.097656 -12.5625 6.734375 -12.5625 Z M 6.734375 -12.5625 "/></g></g></g><g fill="#1d2764" fill-opacity="1"><g transform="translate(855.986528, 435.388174)"><g><path d="M 1.828125 -19.015625 C 2.316406 -19.503906 2.898438 -19.75 3.578125 -19.75 C 4.265625 -19.75 4.851562 -19.503906 5.34375 -19.015625 C 5.84375 -18.523438 6.09375 -17.9375 6.09375 -17.25 C 6.09375 -16.570312 5.84375 -15.984375 5.34375 -15.484375 C 4.851562 -14.992188 4.265625 -14.75 3.578125 -14.75 C 2.898438 -14.75 2.316406 -14.992188 1.828125 -15.484375 C 1.335938 -15.984375 1.09375 -16.570312 1.09375 -17.25 C 1.09375 -17.9375 1.335938 -18.523438 1.828125 -19.015625 Z M 1.421875 -12.203125 L 1.421875 0 L 5.640625 0 L 5.640625 -12.203125 Z M 1.421875 -12.203125 "/></g></g></g><g fill="#1d2764" fill-opacity="1"><g transform="translate(863.170883, 435.388174)"><g><path d="M 2.25 -1.5 C 1.113281 -2.75 0.546875 -4.28125 0.546875 -6.09375 C 0.546875 -7.90625 1.113281 -9.4375 2.25 -10.6875 C 3.394531 -11.9375 4.847656 -12.5625 6.609375 -12.5625 C 8.234375 -12.5625 9.566406 -12.054688 10.609375 -11.046875 L 10.609375 -20.46875 L 14.828125 -20.46875 L 14.828125 0 L 10.65625 0 L 10.65625 -1.375 L 10.609375 -1.375 C 9.566406 -0.21875 8.234375 0.359375 6.609375 0.359375 C 4.847656 0.359375 3.394531 -0.257812 2.25 -1.5 Z M 5.828125 -8.15625 C 5.285156 -7.625 5.015625 -6.9375 5.015625 -6.09375 C 5.015625 -5.25 5.273438 -4.5625 5.796875 -4.03125 C 6.328125 -3.5 7.019531 -3.234375 7.875 -3.234375 C 8.695312 -3.234375 9.375 -3.503906 9.90625 -4.046875 C 10.4375 -4.585938 10.703125 -5.269531 10.703125 -6.09375 C 10.703125 -6.9375 10.425781 -7.625 9.875 -8.15625 C 9.332031 -8.695312 8.664062 -8.96875 7.875 -8.96875 C 7.0625 -8.96875 6.378906 -8.695312 5.828125 -8.15625 Z M 5.828125 -8.15625 "/></g></g></g><g fill="#1d2764" fill-opacity="1"><g transform="translate(879.418931, 435.388174)"><g><path d="M 13.78125 -5.515625 L 4.921875 -5.515625 C 4.921875 -4.660156 5.195312 -4.023438 5.75 -3.609375 C 6.3125 -3.203125 6.914062 -3 7.5625 -3 C 8.25 -3 8.789062 -3.085938 9.1875 -3.265625 C 9.582031 -3.453125 10.035156 -3.816406 10.546875 -4.359375 L 13.59375 -2.828125 C 12.320312 -0.703125 10.210938 0.359375 7.265625 0.359375 C 5.421875 0.359375 3.835938 -0.269531 2.515625 -1.53125 C 1.203125 -2.789062 0.546875 -4.304688 0.546875 -6.078125 C 0.546875 -7.859375 1.203125 -9.382812 2.515625 -10.65625 C 3.835938 -11.925781 5.421875 -12.5625 7.265625 -12.5625 C 9.191406 -12.5625 10.757812 -12 11.96875 -10.875 C 13.1875 -9.757812 13.796875 -8.164062 13.796875 -6.09375 C 13.796875 -5.800781 13.789062 -5.609375 13.78125 -5.515625 Z M 5.046875 -7.859375 L 9.6875 -7.859375 C 9.59375 -8.492188 9.34375 -8.976562 8.9375 -9.3125 C 8.53125 -9.65625 8.007812 -9.828125 7.375 -9.828125 C 6.675781 -9.828125 6.117188 -9.644531 5.703125 -9.28125 C 5.296875 -8.914062 5.078125 -8.441406 5.046875 -7.859375 Z M 5.046875 -7.859375 "/></g></g></g><g fill="#1d2764" fill-opacity="1"><g transform="translate(893.763839, 435.388174)"><g><path d="M 1.421875 0 L 1.421875 -12.203125 L 5.640625 -12.203125 L 5.640625 -10.921875 L 5.6875 -10.921875 C 6.78125 -12.015625 7.945312 -12.5625 9.1875 -12.5625 C 9.789062 -12.5625 10.390625 -12.484375 10.984375 -12.328125 C 11.578125 -12.171875 12.144531 -11.925781 12.6875 -11.59375 C 13.238281 -11.257812 13.6875 -10.785156 14.03125 -10.171875 C 14.375 -9.554688 14.546875 -8.847656 14.546875 -8.046875 L 14.546875 0 L 10.328125 0 L 10.328125 -6.90625 C 10.328125 -7.539062 10.125 -8.09375 9.71875 -8.5625 C 9.3125 -9.039062 8.785156 -9.28125 8.140625 -9.28125 C 7.503906 -9.28125 6.925781 -9.035156 6.40625 -8.546875 C 5.894531 -8.054688 5.640625 -7.507812 5.640625 -6.90625 L 5.640625 0 Z M 1.421875 0 "/></g></g></g><g fill="#1d2764" fill-opacity="1"><g transform="translate(909.488529, 435.388174)"><g><path d="M 2.140625 -12.203125 L 2.140625 -16.75 L 6.359375 -16.75 L 6.359375 -12.203125 L 8.921875 -12.203125 L 8.921875 -9 L 6.359375 -9 L 6.359375 -5.109375 C 6.359375 -3.984375 6.675781 -3.421875 7.3125 -3.421875 C 7.46875 -3.421875 7.628906 -3.453125 7.796875 -3.515625 C 7.972656 -3.578125 8.109375 -3.644531 8.203125 -3.71875 L 8.359375 -3.8125 L 9.40625 -0.40625 C 8.5 0.101562 7.46875 0.359375 6.3125 0.359375 C 5.507812 0.359375 4.820312 0.222656 4.25 -0.046875 C 3.6875 -0.328125 3.253906 -0.703125 2.953125 -1.171875 C 2.660156 -1.640625 2.453125 -2.128906 2.328125 -2.640625 C 2.203125 -3.160156 2.140625 -3.71875 2.140625 -4.3125 L 2.140625 -9 L 0.375 -9 L 0.375 -12.203125 Z M 2.140625 -12.203125 "/></g></g></g><g fill="#1d2764" fill-opacity="1"><g transform="translate(918.885275, 435.388174)"><g><path d="M 1.828125 -19.015625 C 2.316406 -19.503906 2.898438 -19.75 3.578125 -19.75 C 4.265625 -19.75 4.851562 -19.503906 5.34375 -19.015625 C 5.84375 -18.523438 6.09375 -17.9375 6.09375 -17.25 C 6.09375 -16.570312 5.84375 -15.984375 5.34375 -15.484375 C 4.851562 -14.992188 4.265625 -14.75 3.578125 -14.75 C 2.898438 -14.75 2.316406 -14.992188 1.828125 -15.484375 C 1.335938 -15.984375 1.09375 -16.570312 1.09375 -17.25 C 1.09375 -17.9375 1.335938 -18.523438 1.828125 -19.015625 Z M 1.421875 -12.203125 L 1.421875 0 L 5.640625 0 L 5.640625 -12.203125 Z M 1.421875 -12.203125 "/></g></g></g><g fill="#1d2764" fill-opacity="1"><g transform="translate(926.069631, 435.388174)"><g><path d="M 2.25 -1.5 C 1.113281 -2.75 0.546875 -4.28125 0.546875 -6.09375 C 0.546875 -7.90625 1.113281 -9.4375 2.25 -10.6875 C 3.394531 -11.9375 4.847656 -12.5625 6.609375 -12.5625 C 8.234375 -12.5625 9.566406 -12.054688 10.609375 -11.046875 L 10.609375 -12.203125 L 14.828125 -12.203125 L 14.828125 0 L 10.65625 0 L 10.65625 -1.375 L 10.609375 -1.375 C 9.566406 -0.21875 8.234375 0.359375 6.609375 0.359375 C 4.847656 0.359375 3.394531 -0.257812 2.25 -1.5 Z M 5.828125 -8.15625 C 5.285156 -7.625 5.015625 -6.9375 5.015625 -6.09375 C 5.015625 -5.25 5.273438 -4.5625 5.796875 -4.03125 C 6.328125 -3.5 7.019531 -3.234375 7.875 -3.234375 C 8.695312 -3.234375 9.375 -3.503906 9.90625 -4.046875 C 10.4375 -4.585938 10.703125 -5.269531 10.703125 -6.09375 C 10.703125 -6.9375 10.425781 -7.625 9.875 -8.15625 C 9.332031 -8.695312 8.664062 -8.96875 7.875 -8.96875 C 7.0625 -8.96875 6.378906 -8.695312 5.828125 -8.15625 Z M 5.828125 -8.15625 "/></g></g></g><g fill="#1d2764" fill-opacity="1"><g transform="translate(942.317678, 435.388174)"><g><path d="M 1.421875 0 L 1.421875 -20.46875 L 5.640625 -20.46875 L 5.640625 0 Z M 1.421875 0 "/></g></g></g><g fill="#1d2764" fill-opacity="1"><g transform="translate(949.391293, 435.388174)"><g/></g></g><g fill="#1d2764" fill-opacity="1"><g transform="translate(524.091063, 463.87427)"><g><path d="M 13.984375 -10.6875 C 15.128906 -9.445312 15.703125 -7.921875 15.703125 -6.109375 C 15.703125 -4.304688 15.128906 -2.773438 13.984375 -1.515625 C 12.847656 -0.265625 11.398438 0.359375 9.640625 0.359375 C 8.015625 0.359375 6.679688 -0.148438 5.640625 -1.171875 L 5.640625 6.1875 L 1.421875 6.1875 L 1.421875 -12.203125 L 5.59375 -12.203125 L 5.59375 -10.828125 L 5.640625 -10.828125 C 6.679688 -11.984375 8.015625 -12.5625 9.640625 -12.5625 C 11.398438 -12.5625 12.847656 -11.9375 13.984375 -10.6875 Z M 10.40625 -4.046875 C 10.957031 -4.585938 11.234375 -5.273438 11.234375 -6.109375 C 11.234375 -6.953125 10.96875 -7.640625 10.4375 -8.171875 C 9.914062 -8.703125 9.226562 -8.96875 8.375 -8.96875 C 7.550781 -8.96875 6.875 -8.695312 6.34375 -8.15625 C 5.8125 -7.625 5.546875 -6.941406 5.546875 -6.109375 C 5.546875 -5.273438 5.816406 -4.585938 6.359375 -4.046875 C 6.910156 -3.503906 7.582031 -3.234375 8.375 -3.234375 C 9.1875 -3.234375 9.863281 -3.503906 10.40625 -4.046875 Z M 10.40625 -4.046875 "/></g></g></g><g fill="#1d2764" fill-opacity="1"><g transform="translate(540.339111, 463.87427)"><g><path d="M 2.578125 -1.453125 C 1.222656 -2.660156 0.546875 -4.207031 0.546875 -6.09375 C 0.546875 -7.976562 1.25 -9.523438 2.65625 -10.734375 C 4.070312 -11.953125 5.820312 -12.5625 7.90625 -12.5625 C 9.945312 -12.5625 11.671875 -11.953125 13.078125 -10.734375 C 14.484375 -9.515625 15.1875 -7.96875 15.1875 -6.09375 C 15.1875 -4.21875 14.5 -2.671875 13.125 -1.453125 C 11.75 -0.242188 10.007812 0.359375 7.90625 0.359375 C 5.707031 0.359375 3.929688 -0.242188 2.578125 -1.453125 Z M 5.828125 -8.15625 C 5.285156 -7.625 5.015625 -6.9375 5.015625 -6.09375 C 5.015625 -5.25 5.273438 -4.5625 5.796875 -4.03125 C 6.328125 -3.5 7.019531 -3.234375 7.875 -3.234375 C 8.695312 -3.234375 9.375 -3.503906 9.90625 -4.046875 C 10.4375 -4.585938 10.703125 -5.269531 10.703125 -6.09375 C 10.703125 -6.9375 10.425781 -7.625 9.875 -8.15625 C 9.332031 -8.695312 8.664062 -8.96875 7.875 -8.96875 C 7.0625 -8.96875 6.378906 -8.695312 5.828125 -8.15625 Z M 5.828125 -8.15625 "/></g></g></g><g fill="#1d2764" fill-opacity="1"><g transform="translate(556.0638, 463.87427)"><g><path d="M 1.421875 0 L 1.421875 -20.46875 L 5.640625 -20.46875 L 5.640625 0 Z M 1.421875 0 "/></g></g></g><g fill="#1d2764" fill-opacity="1"><g transform="translate(563.129207, 463.87427)"><g><path d="M 1.828125 -19.015625 C 2.316406 -19.503906 2.898438 -19.75 3.578125 -19.75 C 4.265625 -19.75 4.851562 -19.503906 5.34375 -19.015625 C 5.84375 -18.523438 6.09375 -17.9375 6.09375 -17.25 C 6.09375 -16.570312 5.84375 -15.984375 5.34375 -15.484375 C 4.851562 -14.992188 4.265625 -14.75 3.578125 -14.75 C 2.898438 -14.75 2.316406 -14.992188 1.828125 -15.484375 C 1.335938 -15.984375 1.09375 -16.570312 1.09375 -17.25 C 1.09375 -17.9375 1.335938 -18.523438 1.828125 -19.015625 Z M 1.421875 -12.203125 L 1.421875 0 L 5.640625 0 L 5.640625 -12.203125 Z M 1.421875 -12.203125 "/></g></g></g><g fill="#1d2764" fill-opacity="1"><g transform="translate(570.313563, 463.87427)"><g><path d="M 7.921875 -9.109375 C 7.128906 -9.109375 6.445312 -8.816406 5.875 -8.234375 C 5.300781 -7.648438 5.015625 -6.941406 5.015625 -6.109375 C 5.015625 -5.273438 5.300781 -4.5625 5.875 -3.96875 C 6.445312 -3.382812 7.128906 -3.09375 7.921875 -3.09375 C 8.304688 -3.09375 8.664062 -3.140625 9 -3.234375 C 9.34375 -3.328125 9.59375 -3.421875 9.75 -3.515625 L 9.96875 -3.671875 L 11.40625 -0.734375 C 11.289062 -0.660156 11.132812 -0.5625 10.9375 -0.4375 C 10.738281 -0.320312 10.285156 -0.160156 9.578125 0.046875 C 8.867188 0.253906 8.113281 0.359375 7.3125 0.359375 C 5.507812 0.359375 3.929688 -0.269531 2.578125 -1.53125 C 1.222656 -2.789062 0.546875 -4.300781 0.546875 -6.0625 C 0.546875 -7.84375 1.222656 -9.367188 2.578125 -10.640625 C 3.929688 -11.921875 5.507812 -12.5625 7.3125 -12.5625 C 8.113281 -12.5625 8.851562 -12.46875 9.53125 -12.28125 C 10.21875 -12.09375 10.707031 -11.898438 11 -11.703125 L 11.40625 -11.421875 L 9.96875 -8.546875 C 9.445312 -8.921875 8.765625 -9.109375 7.921875 -9.109375 Z M 7.921875 -9.109375 "/></g></g></g><g fill="#1d2764" fill-opacity="1"><g transform="translate(581.994076, 463.87427)"><g><path d="M 1.828125 -19.015625 C 2.316406 -19.503906 2.898438 -19.75 3.578125 -19.75 C 4.265625 -19.75 4.851562 -19.503906 5.34375 -19.015625 C 5.84375 -18.523438 6.09375 -17.9375 6.09375 -17.25 C 6.09375 -16.570312 5.84375 -15.984375 5.34375 -15.484375 C 4.851562 -14.992188 4.265625 -14.75 3.578125 -14.75 C 2.898438 -14.75 2.316406 -14.992188 1.828125 -15.484375 C 1.335938 -15.984375 1.09375 -16.570312 1.09375 -17.25 C 1.09375 -17.9375 1.335938 -18.523438 1.828125 -19.015625 Z M 1.421875 -12.203125 L 1.421875 0 L 5.640625 0 L 5.640625 -12.203125 Z M 1.421875 -12.203125 "/></g></g></g><g fill="#1d2764" fill-opacity="1"><g transform="translate(589.178432, 463.87427)"><g><path d="M 13.78125 -5.515625 L 4.921875 -5.515625 C 4.921875 -4.660156 5.195312 -4.023438 5.75 -3.609375 C 6.3125 -3.203125 6.914062 -3 7.5625 -3 C 8.25 -3 8.789062 -3.085938 9.1875 -3.265625 C 9.582031 -3.453125 10.035156 -3.816406 10.546875 -4.359375 L 13.59375 -2.828125 C 12.320312 -0.703125 10.210938 0.359375 7.265625 0.359375 C 5.421875 0.359375 3.835938 -0.269531 2.515625 -1.53125 C 1.203125 -2.789062 0.546875 -4.304688 0.546875 -6.078125 C 0.546875 -7.859375 1.203125 -9.382812 2.515625 -10.65625 C 3.835938 -11.925781 5.421875 -12.5625 7.265625 -12.5625 C 9.191406 -12.5625 10.757812 -12 11.96875 -10.875 C 13.1875 -9.757812 13.796875 -8.164062 13.796875 -6.09375 C 13.796875 -5.800781 13.789062 -5.609375 13.78125 -5.515625 Z M 5.046875 -7.859375 L 9.6875 -7.859375 C 9.59375 -8.492188 9.34375 -8.976562 8.9375 -9.3125 C 8.53125 -9.65625 8.007812 -9.828125 7.375 -9.828125 C 6.675781 -9.828125 6.117188 -9.644531 5.703125 -9.28125 C 5.296875 -8.914062 5.078125 -8.441406 5.046875 -7.859375 Z M 5.046875 -7.859375 "/></g></g></g><g fill="#1d2764" fill-opacity="1"><g transform="translate(603.52334, 463.87427)"><g><path d="M 6.734375 -12.5625 C 7.429688 -12.5625 8.117188 -12.484375 8.796875 -12.328125 C 9.484375 -12.171875 9.992188 -12.007812 10.328125 -11.84375 L 10.828125 -11.609375 L 9.453125 -8.859375 C 8.492188 -9.359375 7.585938 -9.609375 6.734375 -9.609375 C 6.253906 -9.609375 5.914062 -9.554688 5.71875 -9.453125 C 5.519531 -9.347656 5.421875 -9.15625 5.421875 -8.875 C 5.421875 -8.8125 5.425781 -8.75 5.4375 -8.6875 C 5.457031 -8.625 5.488281 -8.5625 5.53125 -8.5 C 5.582031 -8.445312 5.628906 -8.398438 5.671875 -8.359375 C 5.710938 -8.328125 5.78125 -8.285156 5.875 -8.234375 C 5.96875 -8.179688 6.039062 -8.144531 6.09375 -8.125 C 6.15625 -8.101562 6.25 -8.066406 6.375 -8.015625 C 6.5 -7.972656 6.59375 -7.9375 6.65625 -7.90625 C 6.726562 -7.882812 6.835938 -7.847656 6.984375 -7.796875 C 7.128906 -7.753906 7.242188 -7.722656 7.328125 -7.703125 C 7.816406 -7.566406 8.242188 -7.410156 8.609375 -7.234375 C 8.972656 -7.054688 9.359375 -6.816406 9.765625 -6.515625 C 10.171875 -6.210938 10.484375 -5.832031 10.703125 -5.375 C 10.929688 -4.914062 11.046875 -4.394531 11.046875 -3.8125 C 11.046875 -1.03125 9.117188 0.359375 5.265625 0.359375 C 4.390625 0.359375 3.554688 0.222656 2.765625 -0.046875 C 1.984375 -0.316406 1.421875 -0.585938 1.078125 -0.859375 L 0.546875 -1.28125 L 2.265625 -4.171875 C 2.390625 -4.054688 2.550781 -3.921875 2.75 -3.765625 C 2.957031 -3.617188 3.332031 -3.414062 3.875 -3.15625 C 4.414062 -2.894531 4.882812 -2.765625 5.28125 -2.765625 C 6.15625 -2.765625 6.59375 -3.054688 6.59375 -3.640625 C 6.59375 -3.910156 6.476562 -4.117188 6.25 -4.265625 C 6.03125 -4.421875 5.65625 -4.59375 5.125 -4.78125 C 4.59375 -4.96875 4.175781 -5.144531 3.875 -5.3125 C 3.113281 -5.707031 2.507812 -6.15625 2.0625 -6.65625 C 1.625 -7.15625 1.40625 -7.816406 1.40625 -8.640625 C 1.40625 -9.878906 1.882812 -10.84375 2.84375 -11.53125 C 3.800781 -12.21875 5.097656 -12.5625 6.734375 -12.5625 Z M 6.734375 -12.5625 "/></g></g></g><g fill="#1d2764" fill-opacity="1"><g transform="translate(615.227646, 463.87427)"><g><path d="M 2.625 -6.421875 L 2.046875 -20.46875 L 6.265625 -20.46875 L 5.6875 -6.421875 Z M 4.140625 -5.09375 C 4.898438 -5.09375 5.546875 -4.828125 6.078125 -4.296875 C 6.609375 -3.765625 6.875 -3.117188 6.875 -2.359375 C 6.875 -1.609375 6.609375 -0.96875 6.078125 -0.4375 C 5.546875 0.09375 4.898438 0.359375 4.140625 0.359375 C 3.390625 0.359375 2.75 0.09375 2.21875 -0.4375 C 1.6875 -0.96875 1.421875 -1.609375 1.421875 -2.359375 C 1.421875 -3.117188 1.6875 -3.765625 2.21875 -4.296875 C 2.75 -4.828125 3.390625 -5.09375 4.140625 -5.09375 Z M 4.140625 -5.09375 "/></g></g></g><g fill="#1d2764" fill-opacity="1"><g transform="translate(623.530093, 463.87427)"><g><path d="M 2.625 -6.421875 L 2.046875 -20.46875 L 6.265625 -20.46875 L 5.6875 -6.421875 Z M 4.140625 -5.09375 C 4.898438 -5.09375 5.546875 -4.828125 6.078125 -4.296875 C 6.609375 -3.765625 6.875 -3.117188 6.875 -2.359375 C 6.875 -1.609375 6.609375 -0.96875 6.078125 -0.4375 C 5.546875 0.09375 4.898438 0.359375 4.140625 0.359375 C 3.390625 0.359375 2.75 0.09375 2.21875 -0.4375 C 1.6875 -0.96875 1.421875 -1.609375 1.421875 -2.359375 C 1.421875 -3.117188 1.6875 -3.765625 2.21875 -4.296875 C 2.75 -4.828125 3.390625 -5.09375 4.140625 -5.09375 Z M 4.140625 -5.09375 "/></g></g></g><g fill="#1d2764" fill-opacity="1"><g transform="translate(631.83254, 463.87427)"><g><path d="M 2.625 -6.421875 L 2.046875 -20.46875 L 6.265625 -20.46875 L 5.6875 -6.421875 Z M 4.140625 -5.09375 C 4.898438 -5.09375 5.546875 -4.828125 6.078125 -4.296875 C 6.609375 -3.765625 6.875 -3.117188 6.875 -2.359375 C 6.875 -1.609375 6.609375 -0.96875 6.078125 -0.4375 C 5.546875 0.09375 4.898438 0.359375 4.140625 0.359375 C 3.390625 0.359375 2.75 0.09375 2.21875 -0.4375 C 1.6875 -0.96875 1.421875 -1.609375 1.421875 -2.359375 C 1.421875 -3.117188 1.6875 -3.765625 2.21875 -4.296875 C 2.75 -4.828125 3.390625 -5.09375 4.140625 -5.09375 Z M 4.140625 -5.09375 "/></g></g></g><g clip-path="url(#0cb75e8451)"><g clip-path="url(#1011242ab0)"><path fill="#1d2764" d="M -27.164062 0.140625 L 1075.101562 0.140625 L 1075.101562 53.433594 L -27.164062 53.433594 Z M -27.164062 0.140625 " fill-opacity="1" fill-rule="nonzero"/></g></g><g clip-path="url(#be8648b118)"><g clip-path="url(#c8f8711b1a)"><path fill="#ffffff" d="M 12.351562 6.347656 L 43.855469 6.347656 L 43.855469 36.328125 L 12.351562 36.328125 Z M 12.351562 6.347656 " fill-opacity="1" fill-rule="nonzero"/></g></g><g clip-path="url(#cf4bd80988)"><g clip-path="url(#a67883597d)"><path fill="#ffffff" d="M 57.515625 7.257812 L 89.019531 7.257812 L 89.019531 37.238281 L 57.515625 37.238281 Z M 57.515625 7.257812 " fill-opacity="1" fill-rule="nonzero"/></g></g><g clip-path="url(#39c9d89283)"><g clip-path="url(#8e8ce9e8f9)"><path fill="#ffffff" d="M 102.679688 8.164062 L 134.183594 8.164062 L 134.183594 38.144531 L 102.679688 38.144531 Z M 102.679688 8.164062 " fill-opacity="1" fill-rule="nonzero"/></g></g><g clip-path="url(#06d8c6eb1d)"><g clip-path="url(#363b74670f)"><path fill="#ffffff" d="M 150.109375 8.164062 L 181.609375 8.164062 L 181.609375 38.144531 L 150.109375 38.144531 Z M 150.109375 8.164062 " fill-opacity="1" fill-rule="nonzero"/></g></g><g clip-path="url(#4f869e1f32)"><g clip-path="url(#73b87d04ba)"><path fill="#ffffff" d="M 197.109375 7.257812 L 228.609375 7.257812 L 228.609375 37.238281 L 197.109375 37.238281 Z M 197.109375 7.257812 " fill-opacity="1" fill-rule="nonzero"/></g></g><g clip-path="url(#d769203d6b)"><g clip-path="url(#ec69d23fd1)"><path fill="#ffffff" d="M 242.273438 8.164062 L 273.777344 8.164062 L 273.777344 38.144531 L 242.273438 38.144531 Z M 242.273438 8.164062 " fill-opacity="1" fill-rule="nonzero"/></g></g><g clip-path="url(#0dde1f6c7c)"><g clip-path="url(#083a07f2ca)"><path fill="#ffffff" d="M 287.4375 9.070312 L 318.941406 9.070312 L 318.941406 39.054688 L 287.4375 39.054688 Z M 287.4375 9.070312 " fill-opacity="1" fill-rule="nonzero"/></g></g><g clip-path="url(#4eb99e777e)"><g clip-path="url(#69cf5ad751)"><path fill="#ffffff" d="M 334.863281 9.070312 L 366.367188 9.070312 L 366.367188 39.054688 L 334.863281 39.054688 Z M 334.863281 9.070312 " fill-opacity="1" fill-rule="nonzero"/></g></g><g clip-path="url(#c40f76438b)"><g clip-path="url(#c79a35222d)"><path fill="#ffffff" d="M 381.863281 8.164062 L 413.367188 8.164062 L 413.367188 38.144531 L 381.863281 38.144531 Z M 381.863281 8.164062 " fill-opacity="1" fill-rule="nonzero"/></g></g><g clip-path="url(#7eb9f9bd35)"><g clip-path="url(#297cc6412e)"><path fill="#ffffff" d="M 427.027344 9.070312 L 458.53125 9.070312 L 458.53125 39.054688 L 427.027344 39.054688 Z M 427.027344 9.070312 " fill-opacity="1" fill-rule="nonzero"/></g></g><g clip-path="url(#ccb6995766)"><g clip-path="url(#985a573e3c)"><path fill="#ffffff" d="M 472.191406 9.980469 L 503.695312 9.980469 L 503.695312 39.960938 L 472.191406 39.960938 Z M 472.191406 9.980469 " fill-opacity="1" fill-rule="nonzero"/></g></g><g clip-path="url(#87519e870f)"><g clip-path="url(#73bf01c019)"><path fill="#ffffff" d="M 519.617188 9.980469 L 551.121094 9.980469 L 551.121094 39.960938 L 519.617188 39.960938 Z M 519.617188 9.980469 " fill-opacity="1" fill-rule="nonzero"/></g></g><g clip-path="url(#4ffc00b717)"><g clip-path="url(#2e57c98645)"><path fill="#ffffff" d="M 566.617188 9.070312 L 598.121094 9.070312 L 598.121094 39.054688 L 566.617188 39.054688 Z M 566.617188 9.070312 " fill-opacity="1" fill-rule="nonzero"/></g></g><g clip-path="url(#5c8c435130)"><g clip-path="url(#54252f16f1)"><path fill="#ffffff" d="M 611.78125 9.980469 L 643.285156 9.980469 L 643.285156 39.960938 L 611.78125 39.960938 Z M 611.78125 9.980469 " fill-opacity="1" fill-rule="nonzero"/></g></g><g clip-path="url(#a87cd9cedd)"><g clip-path="url(#3d180d3a32)"><path fill="#ffffff" d="M 656.945312 10.886719 L 688.449219 10.886719 L 688.449219 40.867188 L 656.945312 40.867188 Z M 656.945312 10.886719 " fill-opacity="1" fill-rule="nonzero"/></g></g><g clip-path="url(#8ce6df6744)"><g clip-path="url(#01543a608f)"><path fill="#ffffff" d="M 704.375 10.886719 L 735.878906 10.886719 L 735.878906 40.867188 L 704.375 40.867188 Z M 704.375 10.886719 " fill-opacity="1" fill-rule="nonzero"/></g></g><g clip-path="url(#a7e5382170)"><g clip-path="url(#e25f11fe4d)"><path fill="#ffffff" d="M 751.375 9.980469 L 782.878906 9.980469 L 782.878906 39.960938 L 751.375 39.960938 Z M 751.375 9.980469 " fill-opacity="1" fill-rule="nonzero"/></g></g><g clip-path="url(#dba8462f84)"><g clip-path="url(#21bc5e455d)"><path fill="#ffffff" d="M 796.539062 10.886719 L 828.042969 10.886719 L 828.042969 40.867188 L 796.539062 40.867188 Z M 796.539062 10.886719 " fill-opacity="1" fill-rule="nonzero"/></g></g><g clip-path="url(#6a4522a57c)"><g clip-path="url(#aab68276b9)"><path fill="#ffffff" d="M 841.703125 11.796875 L 873.207031 11.796875 L 873.207031 41.777344 L 841.703125 41.777344 Z M 841.703125 11.796875 " fill-opacity="1" fill-rule="nonzero"/></g></g><g clip-path="url(#cecee1700e)"><g clip-path="url(#9439abf54b)"><path fill="#ffffff" d="M 889.128906 11.796875 L 920.632812 11.796875 L 920.632812 41.777344 L 889.128906 41.777344 Z M 889.128906 11.796875 " fill-opacity="1" fill-rule="nonzero"/></g></g><g clip-path="url(#bcaabdd11f)"><g clip-path="url(#c430c0e94d)"><path fill="#ffffff" d="M 936.128906 10.886719 L 967.632812 10.886719 L 967.632812 40.867188 L 936.128906 40.867188 Z M 936.128906 10.886719 " fill-opacity="1" fill-rule="nonzero"/></g></g><g clip-path="url(#79df75bd30)"><g clip-path="url(#35a3bc4912)"><path fill="#ffffff" d="M 981.292969 11.796875 L 1012.796875 11.796875 L 1012.796875 41.777344 L 981.292969 41.777344 Z M 981.292969 11.796875 " fill-opacity="1" fill-rule="nonzero"/></g></g></svg>