<svg xmlns="http://www.w3.org/2000/svg" xmlns:xlink="http://www.w3.org/1999/xlink" width="1366" zoomAndPan="magnify" viewBox="0 0 1024.5 576" height="768" preserveAspectRatio="xMidYMid meet" version="1.0"><defs><filter x="0%" y="0%" width="100%" height="100%" id="b6f5afd41d"><feColorMatrix values="0 0 0 0 1 0 0 0 0 1 0 0 0 0 1 0 0 0 1 0" color-interpolation-filters="sRGB"/></filter><clipPath id="00ee7f0d40"><path d="M 0 0.140625 L 1024 0.140625 L 1024 575.859375 L 0 575.859375 Z M 0 0.140625 " clip-rule="nonzero"/></clipPath><mask id="6ef13f1d8c"><g filter="url(#b6f5afd41d)"><rect x="-102.45" width="1229.4" fill="#000000" y="-57.6" height="691.2" fill-opacity="0.08"/></g></mask><clipPath id="1169c7b9f0"><path d="M 14 20 L 196 20 L 196 205 L 14 205 Z M 14 20 " clip-rule="nonzero"/></clipPath><clipPath id="aa7697d2e8"><path d="M 0.6875 39.21875 L 182.378906 1 L 218.75 173.910156 L 37.058594 212.128906 Z M 0.6875 39.21875 " clip-rule="nonzero"/></clipPath><clipPath id="97af186723"><path d="M 91.394531 20.140625 L 126.699219 81.679688 L 195.992188 67.105469 L 148.519531 119.714844 L 183.824219 181.257812 L 119.179688 152.230469 L 71.703125 204.839844 L 79.226562 134.292969 L 14.578125 105.265625 L 83.875 90.6875 Z M 91.394531 20.140625 " clip-rule="nonzero"/></clipPath><clipPath id="6efd1d926f"><rect x="0" width="219" y="0" height="213"/></clipPath><mask id="e14378d793"><g filter="url(#b6f5afd41d)"><rect x="-102.45" width="1229.4" fill="#000000" y="-57.6" height="691.2" fill-opacity="0.08"/></g></mask><clipPath id="8856f12ffe"><path d="M 18 15 L 170 15 L 170 169 L 18 169 Z M 18 15 " clip-rule="nonzero"/></clipPath><clipPath id="8146c41b51"><path d="M 29.070312 0.320312 L 180.339844 30.15625 L 151.949219 174.113281 L 0.675781 144.28125 Z M 29.070312 0.320312 " clip-rule="nonzero"/></clipPath><clipPath id="ed9c2ae9d2"><path d="M 104.589844 15.214844 L 111.574219 73.71875 L 169.265625 85.097656 L 115.886719 109.875 L 122.871094 168.378906 L 82.898438 125.191406 L 29.523438 149.96875 L 58.195312 98.496094 L 18.226562 55.308594 L 75.917969 66.6875 Z M 104.589844 15.214844 " clip-rule="nonzero"/></clipPath><clipPath id="16b291b91b"><rect x="0" width="181" y="0" height="175"/></clipPath><mask id="49abbe7efc"><g filter="url(#b6f5afd41d)"><rect x="-102.45" width="1229.4" fill="#000000" y="-57.6" height="691.2" fill-opacity="0.08"/></g></mask><clipPath id="a5c4d0e7e8"><path d="M 29 25 L 281 25 L 281 280 L 29 280 Z M 29 25 " clip-rule="nonzero"/></clipPath><clipPath id="f25b7955f0"><path d="M 47.992188 0.511719 L 299.234375 50.0625 L 252.082031 289.164062 L 0.839844 239.613281 Z M 47.992188 0.511719 " clip-rule="nonzero"/></clipPath><clipPath id="4f61fcae64"><path d="M 173.421875 25.25 L 185.023438 122.417969 L 280.839844 141.316406 L 192.191406 182.472656 L 203.789062 279.640625 L 137.398438 207.90625 L 48.746094 249.0625 L 96.371094 163.574219 L 29.980469 91.839844 L 125.800781 110.738281 Z M 173.421875 25.25 " clip-rule="nonzero"/></clipPath><clipPath id="cca644a951"><rect x="0" width="300" y="0" height="290"/></clipPath></defs><g clip-path="url(#00ee7f0d40)"><path fill="#ffffff" d="M 0 0.140625 L 1024 0.140625 L 1024 575.859375 L 0 575.859375 Z M 0 0.140625 " fill-opacity="1" fill-rule="nonzero"/><path fill="#ffffff" d="M 0 0.140625 L 1024 0.140625 L 1024 575.859375 L 0 575.859375 Z M 0 0.140625 " fill-opacity="1" fill-rule="nonzero"/></g><g mask="url(#6ef13f1d8c)"><g transform="matrix(1, 0, 0, 1, 10, 7)"><g clip-path="url(#6efd1d926f)"><g clip-path="url(#1169c7b9f0)"><g clip-path="url(#aa7697d2e8)"><g clip-path="url(#97af186723)"><path fill="#1d2764" d="M 0.6875 39.21875 L 182.378906 1 L 218.75 173.910156 L 37.058594 212.128906 Z M 0.6875 39.21875 " fill-opacity="1" fill-rule="nonzero"/></g></g></g></g></g></g><g mask="url(#e14378d793)"><g transform="matrix(1, 0, 0, 1, 237, 385)"><g clip-path="url(#16b291b91b)"><g clip-path="url(#8856f12ffe)"><g clip-path="url(#8146c41b51)"><g clip-path="url(#ed9c2ae9d2)"><path fill="#1d2764" d="M 29.070312 0.320312 L 180.339844 30.15625 L 151.949219 174.113281 L 0.675781 144.28125 Z M 29.070312 0.320312 " fill-opacity="1" fill-rule="nonzero"/></g></g></g></g></g></g><g mask="url(#49abbe7efc)"><g transform="matrix(1, 0, 0, 1, 713, 255)"><g clip-path="url(#cca644a951)"><g clip-path="url(#a5c4d0e7e8)"><g clip-path="url(#f25b7955f0)"><g clip-path="url(#4f61fcae64)"><path fill="#1d2764" d="M 47.992188 0.511719 L 299.234375 50.0625 L 252.082031 289.164062 L 0.839844 239.613281 Z M 47.992188 0.511719 " fill-opacity="1" fill-rule="nonzero"/></g></g></g></g></g></g></svg>