<svg xmlns="http://www.w3.org/2000/svg" xmlns:xlink="http://www.w3.org/1999/xlink" width="1366" zoomAndPan="magnify" viewBox="0 0 1024.5 576" height="768" preserveAspectRatio="xMidYMid meet" version="1.0"><defs><filter x="0%" y="0%" width="100%" height="100%" id="f8a7294671"><feColorMatrix values="0 0 0 0 1 0 0 0 0 1 0 0 0 0 1 0 0 0 1 0" color-interpolation-filters="sRGB"/></filter><clipPath id="bbf3dd5383"><path d="M 0 0.140625 L 1024 0.140625 L 1024 575.859375 L 0 575.859375 Z M 0 0.140625 " clip-rule="nonzero"/></clipPath><clipPath id="c361395f70"><path d="M 392 0.140625 L 1024 0.140625 L 1024 575.859375 L 392 575.859375 Z M 392 0.140625 " clip-rule="nonzero"/></clipPath><mask id="d2cd83cd48"><g filter="url(#f8a7294671)"><rect x="-102.45" width="1229.4" fill="#000000" y="-57.6" height="691.2" fill-opacity="0.08"/></g></mask><clipPath id="a3b725952a"><path d="M 49 0.140625 L 632 0.140625 L 632 575.859375 L 49 575.859375 Z M 49 0.140625 " clip-rule="nonzero"/></clipPath><clipPath id="6466a1bf82"><path d="M 0.453125 -56.535156 L 756.097656 -191.140625 L 884.203125 527.988281 L 128.554688 662.597656 Z M 0.453125 -56.535156 " clip-rule="nonzero"/></clipPath><clipPath id="d89a1e0f56"><path d="M 377.699219 -123.734375 L 515.6875 135.082031 L 803.878906 83.746094 L 600.96875 295.042969 L 738.957031 553.863281 L 475.5625 425.632812 L 272.648438 636.925781 L 312.777344 346.378906 L 49.382812 218.148438 L 337.574219 166.8125 Z M 377.699219 -123.734375 " clip-rule="nonzero"/></clipPath><clipPath id="5c847e781d"><rect x="0" width="632" y="0" height="576"/></clipPath><clipPath id="1cc88e01e4"><path d="M 0 191 L 378 191 L 378 575.859375 L 0 575.859375 Z M 0 191 " clip-rule="nonzero"/></clipPath><mask id="2dbff59891"><g filter="url(#f8a7294671)"><rect x="-102.45" width="1229.4" fill="#000000" y="-57.6" height="691.2" fill-opacity="0.08"/></g></mask><clipPath id="2a5d2d39d8"><path d="M 0 41 L 348 41 L 348 384.859375 L 0 384.859375 Z M 0 41 " clip-rule="nonzero"/></clipPath><clipPath id="3f9949d1e7"><path d="M -32.519531 0.949219 L 377.242188 81.765625 L 300.332031 471.71875 L -109.425781 390.90625 Z M -32.519531 0.949219 " clip-rule="nonzero"/></clipPath><clipPath id="b57168f960"><path d="M 172.050781 41.296875 L 190.964844 199.769531 L 347.242188 230.589844 L 202.65625 297.710938 L 221.570312 456.1875 L 113.296875 339.195312 L -31.289062 406.316406 L 46.378906 266.890625 L -61.894531 149.902344 L 94.382812 180.722656 Z M 172.050781 41.296875 " clip-rule="nonzero"/></clipPath><clipPath id="91988ce3b8"><rect x="0" width="378" y="0" height="385"/></clipPath><clipPath id="845b9310d2"><path d="M 5 0.140625 L 224 0.140625 L 224 211 L 5 211 Z M 5 0.140625 " clip-rule="nonzero"/></clipPath><mask id="f3a542da76"><g filter="url(#f8a7294671)"><rect x="-102.45" width="1229.4" fill="#000000" y="-57.6" height="691.2" fill-opacity="0.08"/></g></mask><clipPath id="0c273e55c4"><path d="M 14 18 L 196 18 L 196 203 L 14 203 Z M 14 18 " clip-rule="nonzero"/></clipPath><clipPath id="35cc429e7d"><path d="M 0.445312 37.320312 L 182.136719 -0.898438 L 218.507812 172.011719 L 36.816406 210.230469 Z M 0.445312 37.320312 " clip-rule="nonzero"/></clipPath><clipPath id="1c59028d67"><path d="M 91.152344 18.238281 L 126.457031 79.78125 L 195.75 65.207031 L 148.277344 117.816406 L 183.582031 179.355469 L 118.9375 150.332031 L 71.464844 202.941406 L 78.984375 132.390625 L 14.339844 103.363281 L 83.632812 88.789062 Z M 91.152344 18.238281 " clip-rule="nonzero"/></clipPath><clipPath id="9b8ddc3b5a"><rect x="0" width="219" y="0" height="211"/></clipPath></defs><g clip-path="url(#bbf3dd5383)"><path fill="#ffffff" d="M 0 0.140625 L 1024 0.140625 L 1024 575.859375 L 0 575.859375 Z M 0 0.140625 " fill-opacity="1" fill-rule="nonzero"/><path fill="#ffffff" d="M 0 0.140625 L 1024 0.140625 L 1024 575.859375 L 0 575.859375 Z M 0 0.140625 " fill-opacity="1" fill-rule="nonzero"/></g><g clip-path="url(#c361395f70)"><g mask="url(#d2cd83cd48)"><g transform="matrix(1, 0, 0, 1, 392, 0.000000000000055289)"><g clip-path="url(#5c847e781d)"><g clip-path="url(#a3b725952a)"><g clip-path="url(#6466a1bf82)"><g clip-path="url(#d89a1e0f56)"><path fill="#1d2764" d="M 0.453125 -56.535156 L 756.097656 -191.140625 L 884.203125 527.988281 L 128.554688 662.597656 Z M 0.453125 -56.535156 " fill-opacity="1" fill-rule="nonzero"/></g></g></g></g></g></g></g><g clip-path="url(#1cc88e01e4)"><g mask="url(#2dbff59891)"><g transform="matrix(1, 0, 0, 1, 0, 191)"><g clip-path="url(#91988ce3b8)"><g clip-path="url(#2a5d2d39d8)"><g clip-path="url(#3f9949d1e7)"><g clip-path="url(#b57168f960)"><path fill="#1d2764" d="M -32.519531 0.949219 L 377.242188 81.765625 L 300.332031 471.71875 L -109.425781 390.90625 Z M -32.519531 0.949219 " fill-opacity="1" fill-rule="nonzero"/></g></g></g></g></g></g></g><g clip-path="url(#845b9310d2)"><g mask="url(#f3a542da76)"><g transform="matrix(1, 0, 0, 1, 5, 0.000000000000055289)"><g clip-path="url(#9b8ddc3b5a)"><g clip-path="url(#0c273e55c4)"><g clip-path="url(#35cc429e7d)"><g clip-path="url(#1c59028d67)"><path fill="#1d2764" d="M 0.445312 37.320312 L 182.136719 -0.898438 L 218.507812 172.011719 L 36.816406 210.230469 Z M 0.445312 37.320312 " fill-opacity="1" fill-rule="nonzero"/></g></g></g></g></g></g></g></svg>